<svg xmlns="http://www.w3.org/2000/svg" version="1" viewBox="0 0 1920 900" id="svg998"><style id="style4">.st4{fill:#b27845}.st14{fill:#9d6938}.st53{fill:#37628f}.st101{fill:#090605}.st103{fill:#af5005}.st104{fill:#a2693c}.st106{fill:#bd7f4a}.st111{fill:#6683a7}.st118{fill:#cb8601}.st123{fill:#9e7d64}.st124{fill:#644f37}.st125{fill:#84593a}.st167{fill:#a07049}.st223{fill:#a97b59}.st232{fill:#84a2d0}.st240{fill:#bcae9c}.st243{fill:#8c6239}.st252{fill:#372316}.st292{fill:#ba8a5d}.st308{fill:#b75558}.st316{fill:#0c0909}.st317{fill:#b9835a}.st318{fill:#9c775b}.st319{fill:#986a3f}.st320{fill:#cd0230}.st371{fill:#bb8355}.st387{fill:#f99764}.st390{fill:#826027}.st391{fill:#6e4e30}.st444{fill:#7a3415}</style><g transform="translate(0 108)" id="g996"><g stroke-width="3" id="g994"><path class="st4" d="M-4 532v-7c6-7 13-5 20-6l12-4 51-10c8-2 17-2 26 1 7 5 14 6 24 5 22-1 44 1 66 3 10 1 20-1 29-2 8-1 15-4 21 3 1 3 1 4-2 5 19-8 39-2 59-8 3-5 9-4 13-2 19 8 34 21 17 43-7 9-6 10 5 11l17 2c4 1 7 1 9-2 2-4 3-6 0-11-9-15-6-28 9-37 8-5 14-11 24-11l5 4a9709 9709 0 0 1 2 152c0 4 0 8-2 11-6 8-11 4-14-2-3-5-6-8-11-12-10-7-8-19-9-29-1-9-2-18-7-25l-3-3c-26 0-52-1-78 2h-44c-5-8-14-9-22-11-21-4-28-13-26-35l2-10c1-7-2-10-9-12-9-3-20-2-29-3h-20l-12 3c-36-1-71 4-107 3-6 0-12 0-16-6z" id="path6" fill="#b27845"/><path d="M-4 323v-23c18-21 42-31 67-39 12-4 23-10 35-12 32-8 64-4 96-2 6 1 17 1 20 12-1 12 5 23 3 35 0 7-1 13-6 17-11 11-5 24-5 37 0 2 3 3 5 5 3 1 6 3 6 7-1 3-5 5-8 5s-6 1-7 4l-6 2c-2-2-3-4-3-7 0-6 1-13-8-14-4-3-5-9-8-13-7-8-12-8-19-1l-5 6c-11 10-17 9-31-3-3 3-1 7 0 10 3 8-2 13-5 19-2 3-6 4-9 1-3-6-9-4-14-5-11-2-23-5-34-5-5-1-8-6-12-8-8-5-12-12-5-21 2-2 4-5 0-7-3-2-5 0-7 1-10 7-23 3-34 6-4 1-4-4-6-7z" id="path8" fill="#03589a"/><path d="M19 525H-4v-70c3-4 8-5 12-6 37-8 73-13 110-17 33-3 65-12 98-14 7 2 16 1 19 8s-6 12-9 17c-12 17-31 21-47 31l-25 14c-7 4-10 10-7 19l-4 5c-13 0-26 4-38-2-20-1-39 4-58 9l-20 1-8 5z" id="path10" fill="#b27701"/><path class="st14" d="M-4 532l119-2 17-3c4 4 5 8 5 13a8239 8239 0 0 1-2 138c-8 6-10-1-12-6-2-4-2-9-1-13 0-9-2-17-9-23-5-19-5-20-25-18-26 1-52 3-77 7-6 0-11 0-15-5v-88z" id="path12" fill="#9d6938"/><path d="M-4 752v-22c4-4 8-6 12-6h117l3 1c9 4 18 7 26 0 12-1 25-1 37 1 61-3 121-1 181-2 8 0 15-1 22 2 6 2 8 7 9 13 0 4 2 7 7 7 4 0 6-3 7-7s1-9 6-12c6-3 12-3 19-2 17 4 30 15 45 22 2 1 4 3 3 5 0 2-3 4-5 4l-16 2c-12 1-24 0-36 3-90 0-180 2-269-1l-152-1c-6-1-12 0-16-7z" id="path14" fill="#51412f"/><path d="M1923 58v92c-26-13-63-12-94-1-30 14 20 41-13 53 1 22-39 41-31 8 10 1 0-25 3-17-24 1-15-33-1-43-12-15-47 32-51-8 18-33-25 42-24-1 6-24 8-41 36-40 7-11 47-41 38-13-15 10 28 31 24 38-15-30 28 6 33-19 42-12-36-32-1-50 21-14 49-1 61 13 7-4 10-17 20-12z" id="path16" fill="#404309"/><path d="M-4 620l101-9c19-2 19-2 19 16l1 8c3 5 5 11 5 17v41c0 19-3 22-22 22H81l-66 3c-7 0-14 0-18-6v-2c4-7 11-5 18-6s10-5 10-13-7-7-11-7c-6 0-13 2-17-4l-1-60z" id="path18" fill="#080604"/><path d="M1923 485c3 23-20 34-33 45-40-9 6 31-6 50-5 34 8 77-5 105-20 1-36-12-52 0-7-14-2-32-3-48-4-18 5-33 8-48 0-20 19-17 20-15-23-13-20-41 1-58 1-19-18-53 19-44 15 6 21 23 41 12l5 1h5z" id="path20" fill="#141909"/><path d="M1923 228c-1 12 4 30-9 37 22 15-24 19-16 38-22 0-35 7-41 31-17-6-14-35-34-38-5-6 18 34 8 47 14 36-32 7-33 1-27-19 34-30-2-46-31-22 16-42 34-26 15-11 24-29 40-32-10-16 21-23 25-38 25-3-6 25 17 19 4 1 9 3 11 7z" id="path22" fill="#3b390e"/><path d="M1923 228c-15-3-45 4-23-16-4-25-12 29-32 16-8 10-29 18-19-4 12-17 54-49 9-46-20-7-55 14-45-24 23-15 67-25 87-16 7 16 32 7 23 31v59z" id="path24" fill="#2d2c06"/><path d="M127 777c-4-2-9-2-14-2-39 0-78 1-117-3v-15c11-3 22 1 33 1 112 0 223 3 335 2 9 7 10 13 2 23-18-1-36 3-54 1-21-3-43 0-64-1H137c-4-1-8-2-10-6z" id="path26" fill="#8d6240"/><path d="M1923 552v150c-18 0-20-23-38-20-5-37-2-75-3-112-4-22 20-40 32-51 16 4 0 24 9 33z" id="path28" fill="#0e1308"/><path d="M1923-40c0 19-29 31-30 30-8 28-43 33-65 48-17 12-52-9-40-15-3 26-70 25-38 0 21-7 13-43 45-33 14-2 33 12 25 19-3-37 41-21 59-45 13-6 32-15 44-4z" id="path30" fill="#49470a"/><path d="M220 424c-35 2-69 11-105 14S44 448 8 455H-4v-12c11-10 24-9 37-11l4-1c43-11 87-15 131-22 12-2 25-2 38-6 8 0 16-4 25-1 10 0 13 8 18 14 1 2 0 4-1 6-9 5-19 0-28 2z" id="path32" fill="#8c0528"/><path d="M1890-94c33-15 41 19 30 43-10 16-36 1-17-12-16 10-25 38-48 26-3 33-50 31-53 1 11-21 35-8 41-33 12-19 39-2 47-25z" id="path34" fill="#473c07"/><path d="M-4 712l111-2c9 0 10-4 9-11v-65c9 5 11 13 11 22 0 8-2 17 5 24 10 10 4 23 5 34 0 6 1 12-6 15-10-2-20 1-31 1l-104-1v-17z" id="path36" fill="#846d5c"/><path d="M-4 283v-23c3-7 9-10 15-12 27-9 53-21 82-24 19-2 38-5 57-3 20 2 41 2 60 11l13 4c8 3 15 8 10 19-4 5-9 3-13 1a244 244 0 0 0-210 24c-4 3-9 5-14 3z" id="path38" fill="#735142"/><path d="M-4 283c74-48 153-59 235-27 4 2 4 6 2 9-9 6-15 2-21-5-7-6-16-9-26-9h-66c-13 0-24 4-36 8-29 10-57 21-82 40l-6 1v-17z" id="path40" fill="#292827"/><path d="M34 435c-12 4-25 6-38 7v-87c11-13 22-4 33-1 9 2 9 10 8 17 0 22 4 18-23 23 23-4 24-4 23 20 0 7 3 15-3 20z" id="path42" fill="#627ea0"/><path d="M1907 406c-7 24 22-18 16 12v59c-10 12-45 25-40 5-22-29 33-33 29-34-15-4-29-15-27-22-27 18-49-18-15-28 12-7 28-2 37 8z" id="path44" fill="#51601d"/><path d="M231 265v-9c2-9-2-13-10-15-20-7-40-12-61-14-19-2-38-4-57 2l-6 1c-37-1-68 17-101 30v-10c12-14 30-17 46-24 11-4 22-6 34-5l55-6c11-9 24-5 35-4 26 2 51 12 77 17l4 3c4 13-4 24-6 35-1 3-5 7-10 4v-5z" id="path46" fill="#a21444"/><path d="M1898-12c10-16 29-35 25-5v42c-14 16 5 13 0 33-15 21-30 27-38 0-39-18 20-47 17-49-15 4-16-16-4-21z" id="path48" fill="#2c2a06"/><path class="st53" d="M34 435v-30c0-9-2-14-12-10l-17 3c7-6 14-6 20-8 4-1 9-1 9-7-1-8 3-21-2-23-10-2-19-10-31-6l-4 1v-33c2 2 4 6 7 3 7-4 15-2 22-3 4 0 9 1 10-3 3-9 7-7 12-3 6 5 9 9 3 15-6 5-9 10 1 15 3 1 5 6 8 9l-1 2c-2 4-7 4-11 6s-5 7-5 11c0 5 3 6 7 7 3 0 7 1 8 6 0 2-1 4-3 5-13 4-13 14-12 25 0 6 1 13-6 17l-1 1z" id="path50" fill="#37628f"/><path d="M367 763c-63 0-125 1-188-1-61-2-122 0-183-5v-5c13 4 27 2 40 3 108 1 216 3 324 2h75c3-1 5-1 6 1 1 3 0 5-2 7-16 6-32 2-48 3-8 0-17 2-24-5z" id="path52" fill="#c09875"/><path d="M1705 715c-18-1-31-10-5-9 24 4 51 7 66-14 33 6 61 23 96 17 16 0 73-12 56 11-69 0-138 1-206-2l-4-1-4-2z" id="path54" fill="#6c4c35"/><path d="M1923 552c-9-6-5-48-16-18-11 15-31 31-38 8-16-10 10-28 23-16 16-3-6-25 20-19 21-28 7 38 11 45z" id="path56" fill="#2f4614"/><path d="M1923 712c-33-6-74 5-112-1-26-5-6-26 10-13 26 0 62 22 76-14 11 4 29 14 26 28z" id="path58" fill="#846f48"/><path d="M1617-50c-16 10-7-25-19-2-25-4 27-36 1-39 24-20 38 30 18 41z" id="path60" fill="#7b5e1c"/><path d="M1892 305c1-11 10-32 16-12 9-7 23 15 10 28-3 23-59-11-26-16z" id="path62" fill="#d4be91"/><path d="M-4 680h20c6 0 14-2 13 9-1 8 4 20-12 19-7 0-14 4-21 2v-30z" id="path64" fill="#6a5748"/><path d="M1617-50c9-16-9-34 19-41 23-18 28 14 7 17-17 7-9 54-31 39 5-2 10-9 5-15z" id="path66" fill="#a47d3c"/><path d="M1923 298c-16-9-24 23-18-7-7-9-8 11-12-8 19 2 34-21 13-13 3-15 25-23 17 3v25z" id="path68" fill="#634e28"/><path d="M1900 328c17 0 26-28 23 2 4 31-7 8-23-2z" id="path70" fill="#83774d"/><path d="M1923 40c-12 3 0 23-16 6 7-14 18-37 16-6z" id="path72" fill="#404309"/><path d="M1903-45c12-21 30-4 16 5-5 0-16 1-16-5z" id="path74" fill="#a57e59"/><path d="M1905 492c-3-25 36-8 9 3-4-14 0-6-9-3z" id="path76" fill="#2f4614"/><path d="M1885-82c-25-7 26-19 4-1l-4 1z" id="path78" fill="#b69569"/><path d="M1888-94c-19 24-23-8 0 0z" id="path80" fill="#473c07"/><path d="M1923 293c-27 0 3-13 0 0z" id="path82" fill="#cab195"/><path d="M1617 100c31-25-31-30-44-31-32-5 9-48 28-53 11-9 2-33 28-29 28 5 51-9 76-14 8 12 2 44 19 18 16-7 21 8 15-14 14-15 34-1 46-19 18-9 20 12 26 19-14-1-22 1-27 18-23-5-12 26-25 27-22 6-26 18-1 26 38 15-28 18-20 17 10 10 38 33 5 43-15 4-23-7-19 12-5 13-11 23-16 16-16 2-31 8-28 28 34 12-13 33-23 7 1-20-10-21-24-22-17-24 12-33 25-32-10-35-42 34-41-17z" id="path84" fill="#58590d"/><path d="M1541 95c-13 1-24 21-29-6 5-26-38-2-21-28 2-10-25 14-13-11 21-26 56-5 80-23 32-15 13 22-5 28 9 28-35 21-25-3-10 21 45 38 19 55-4-3-1-9-6-12z" id="path86" fill="#58590d"/><path d="M1554 28c-16 13-51 16-68 10 8-24 56 11 39-23 16-14 53 4 17 11 3 4 8 2 12 2z" id="path88" fill="#756a2b"/><path d="M1612-35c10-4 44-17 38 11-13 22-49 12-41-11h2z" id="path90" fill="#58590d"/><path d="M1609-24c11 17 24 11 38 3 28 20-68 6-28 31-8 9-38 19-18 0 2-12 17-22 8-34z" id="path92" fill="#e0c991"/><path d="M1479 38c-36-13 25-36 11-7-2 4-8 4-11 7z" id="path94" fill="#84703e"/><path d="M1479 38c8-21 51-14 13-2-4-2-10 7-13 2z" id="path96" fill="#58590d"/><path d="M1571 40c2-18-4-21 18-17-5 7-5 21-18 17z" id="path98" fill="#857538"/><path d="M398 507h-5c-23 9-46 11-70 5-16-5-32 0-47 0-31-1-63 5-94 2-5-1-10-2-11-8 9-10 23-7 34-11h9c5 2 9-1 13-3 15-4 29-1 43-2 5 1 8-3 11-4 12-1 24-3 36 2 10 13 25 9 38 7 30-6 61-5 92-3l16 1c33-5 65-3 98-2 28 0 56 0 85 3 16 1 33-1 49 1 11 1 21 3 30 8 29 8 59 7 88 8 3 0 5 2 7 4 6 8 9 23 8 34-1 3-3 8 0 10 4 3 8 0 11-2 12-10 20-3 22 9 2 8 2 17 1 26-2 11-10 15-19 8-6-6-11-4-17-2-9 5-18 11-28 14-20 3-36 15-49 30-3 3-5 8-10 10-3 0-7-1-8-5-3-11-12-17-21-23-2-21-4-42-4-63v-30c0-18-1-19-20-21-20 2-39 6-59 10-36 7-70 3-106-2l-28-2c-31 2-62-4-93-7l-2-2z" id="path100" fill="#c3854e"/><path class="st101" d="M365 598v2c1 6 2 12 1 18-3 3-6 3-10 3-18-1-37 3-56 3-20-1-22 2-22 22v50c1 8-2 12-11 13-9 0-14-3-14-13v-7 1c0 20 4 21-21 21-9 0-18 2-26 4-7 0-13 0-17-7-2-29-3-59 1-88 5-17 19-24 41-20 17 3 34 2 50 0 12-2 23-1 35-1 15 0 30 0 45-2 2-1 3 0 4 1z" id="path102" fill="#090605"/><path d="M365 617v-17c7 14 3 29 8 42 2 6-1 16 11 13 3-1 5 5 6 9 1 5 2 10 7 11 3 2 5 4 5 7 1 15 3 30-2 45 0 2-2 3-3 4l-188-1h-20c-4-3-6-7-3-12s8-4 12-2c5 2 10 1 14-2 5-4 11-4 16-5 38 0 75-4 112-5 6-1 11-2 16-6 4-6 3-12 3-18 1-19-2-38 2-57l4-6z" id="path104" fill="#927760"/><path class="st103" d="M398 727V507c8-1 17-3 24 3 4 5 4 10 4 15l-1 90c-7 30-2 62-3 93v12c-1 7 0 13-8 15-8 3-12-2-16-8z" id="path106" fill="#af5005"/><path class="st104" d="M152 527c10 0 21 0 32 2s12 8 11 17l-1 5c-6 21 1 32 21 36 8 1 19-1 20 12l-20 3c-9 1-16 2-24 10l-26 22c-5 6-11 5-16-1-3-5-2-11-2-17v-72c-1-6-1-12 5-17z" id="path108" fill="#a2693c"/><path d="M152 635c6 0 9-3 13-7 6-6 11-12 19-17 16-11 33-12 51-12 39-1 78-1 118-4 4 0 9-2 12 3l-150 6c-21 1-17-1-18 18-2 2-6 1-8 4-5 26-5 52 1 78l2 3c5 4 10 2 15 2 6-1 12-2 18 1-7 4-13 10-21 12-7 2-12 5-12-6-5 5-1 9-2 14-13-1-26 2-38-3-5-4-5-9-5-15v-63c0-5-1-11 5-14z" id="path110" fill="#8f694c"/><path class="st106" d="M172 505c12 9 26 8 40 7 42-4 83-8 125-2 19 2 37-3 56-3-5 4-10 9-15 11-13 4-14 14-16 25 0 2 0 4 2 5 18 5 4 15 3 22-1 4-5 4-9 3-9-3-18-6-28-4-4 1-8-1-9-5-2-4 0-7 3-10 2-3 7-5 8-9 0-6 9-12 2-16-10-6-15-23-31-15-19 4-38 6-58 4-10-8-21-1-31 0-18 1-36-2-54-1-12 0-24-3-37-1-6 1-14 1-18-6h40c4-4 9-6 14-9 4-1 9-1 13 4z" id="path112" fill="#bd7f4a"/><path d="M152 635v92c-1 3 1 11-2 10-6-2-15 1-19-7l1-50V527h20v108z" id="path114" fill="#974405"/><path d="M245 518l57-4 6 1v2l-81 6c7-5 14-2 18-5z" id="path116" fill="#794816"/><path class="st14" d="M19 525c1-3 4-5 7-5-1 4-4 5-7 5z" id="path118" fill="#9d6938"/><path d="M36 435v-30c0-9 1-16 12-15 4 0 7-2 9-5 4-10 11-13 21-13 8 0 17 2 17-10l1-2c6 1 14-2 17 8 6-7 9-13 3-22-4-5-2-10 3-14 5-3 8 0 11 3 9 13 10 13 22 3l5-3c5 3 5 7 5 12 2 11 6 13 16 8 4-1 5-6 9-8 11 1 10 8 10 16-4 5-9 6-15 7l-40 8c16 6 30 10 45 8 3 0 5-1 5-5 1-4 1-9 6-12l2-2c11-4 22-5 33 1 3 3 3 6 2 10-3 4-7 2-11 1-17-4-20-1-19 16l2 12-76 12c-27 4-54 7-81 14l-14 1z" id="path120" fill="#4672a0"/><path d="M232 370c-11-1-22 2-32-2-1-11 8-6 14-9-12 0-16-5-15-16v-21c0-6 1-11 8-14 7-4 7-24 2-37-2-5-7-10 3-11 7-1 13 4 19 5l2 5c3 3 4 7 4 11v77c0 5-1 9-5 12z" id="path122" fill="#1367a8"/><path class="st111" d="M197 370v20c0 6-2 8-8 4-4-4-9-4-15-2s-14 6-17-4c-6 2-11 1-16-3-3-2-9-2-8-8 1-5 7-4 11-5l52-9 1 7z" id="path124" fill="#6683a7"/><path class="st111" d="M187 347c3 8 1 14-9 14l-9 2c-10 4-13 0-12-9v-19c0-14 3-14 15-8 9 4 12 12 15 20z" id="path126" fill="#6683a7"/><path class="st53" d="M59 355c13 0 25 2 37 5v1c-13 9-32 6-37-5z" id="path128" fill="#37628f"/><path class="st118" d="M172 505h-15c-4 3-8 3-12 0-8 0-12 0-6-9 11-14 24-22 39-27 5-1 10-5 14-8 5-4 9-10 17-7l4-2c4-10 14-16 20-25l-12-3 26-4c12-8 25-8 38-10l22-1c13 2 27 5 40-3 17-3 35-2 52-6 21-2 42 3 64-1 13 4 26 1 39 0 33-2 66-3 98-2 17 4 34 6 51 2l42 1c6 1 12 3 18 1l3-1c6-3 6-10 12-13 6-4 10-3 11 4 1 4-1 11 4 13 6 2 13 3 19 1 5-1 9 1 13 1 13 4 26 4 39 3 22-1 43 8 64 5 6 4 15-1 19 8 0 6-5 6-9 8-3 0-7-1-7 4 0 4 3 5 6 6l4 3c8 5 7 14-1 19-4 2-8 2-11 5-14 12-15 12-29-1-3-3-6-4-10-3l-26 10c-3 1-6 2-6 7 0 7-5 10-11 11a2057 2057 0 0 1-123-4c-18-5-36-4-55-4h-85c-24 0-48-1-72 7h-80c-6 0-13-2-20 1h-4c-5 1-9 3-14 3-9 0-18 2-25-4h-38l-8 4c-15 3-29-2-45 1-3 3-7 1-10 4-15-1-29 8-44 6z" id="path130" fill="#cb8601"/><path class="st4" d="M144 505h13c-3 7-8 4-13 5v-5z" id="path132" fill="#b27845"/><path d="M1659 720l-147-1c-8-35 45-5 65-10 22-6 45-2 67 1 3 7 15 1 15 10z" id="path134" fill="#785033"/><path d="M1642 712c-19 2-50 1-18-13 36-9 90 19 115-3 20-19 28 24 0 16-33 0-65-4-97 0z" id="path136" fill="#9e8544"/><path d="M1642 712c12-8 24 3 0 0z" id="path138" fill="#d59d7b"/><path class="st123" d="M442 730h-19c-6-8-2-16-3-24v-6c3-9 8-17 18-21s8-16 12-24c2-5 0-13 10-9 5 9 2 20 3 30 1 8-2 16 3 22 6 4 13 6 21 6 44 0 89-4 133-3 19 0 20-2 20-20 0-14-1-29 1-43 5-7 7-2 9 2 4 6 3 14 4 21 0 6 1 10 9 6 9-4 24 2 28 13l7 17c1 8 1 17-1 25l-2 6c-10 8-21 5-31 4-18-2-35-1-52 1-21 3-42 3-62 1l-57-1c-14-1-29 1-43-5-3-2-5 0-8 2z" id="path140" fill="#9e7d64"/><path class="st124" d="M442 730c2-5 4-8 9-7 27 6 54 5 81 5 20 0 40 3 60 2 10-1 19-1 28-6 3-1 5 0 8 1s6 3 8 2c19-7 38 4 57 0 5 0 9 3 13 6 5 5 8 10 7 17-2 7-9 6-15 6-71-1-141 4-212 3-6 0-12 2-16-4 5-4 11-1 18-3-18-5-29-19-46-22z" id="path142" fill="#644f37"/><path class="st125" d="M470 755c77 1 153-4 230-3 3 0 8 2 9-2 2-4 0-8-3-11-5-4-11-6-13-12l1-5c11-8 18 2 26 6 2 4 2 8 2 12 0 3 1 5 3 7 3 4 14-1 10 10-3 2-8 2-12 2-67-2-135 4-202 3h-66c-5 0-10 0-15-4h-5c12-6 24-2 35-3z" id="path144" fill="#84593a"/><path d="M422 705l1 25v11c0 9-6 11-13 11-8 0-13-2-12-11v-10l1-3 5 2c11 5 14 3 14-9v-91c0-5-1-10 2-15 7 4 6 10 6 16l1 47c-1 9-6 17-5 27z" id="path146" fill="#85440b"/><path d="M1792 328c25 29-52 30-38-2 9-13 15-38-8-27-21-3 6-32-19-19-31-23 32-24 23-51 24-15-35-2-12-27 11-20 29-22 36-4 24 5 3 44 30 56 27 19-43 25 0 42 21 17-4 21-13 28l1 4z" id="path148" fill="#282e07"/><path d="M1762 185c-20 18-31 41-60 30-31-16 50-35 8-24-9-28-11 7-15 17 16 16-19 50-39 43 2 22-24 9-17 0-40 9-23-56 9-31 17 17 9-17 24-24-17 21-56 9-33-16 18-25 50 23 55-14 23-10 40-25 50-49 7 9-17 36 12 41 9-5 23 29 6 27z" id="path150" fill="#4a530e"/><path d="M1745 63c14-5 32-5 6-14-20-11 12-12 21-9 12-15 11-48 20-16-10 19 19-1 24 16 22-5-5 18-16 12-7 38 57 16 56 48-23 8-26 27-50 17 25 16-27 22-8 10 15 0-12-13 7-23-3 21-31 5-16 2-28 4-14-31 5-19-11-9-27-12-35 9-4-13-25-21-14-33z" id="path152" fill="#6a5c1a"/><path d="M1813 268c-14-16-38-23-28-48 21 10 39 13 63 16-14 15 46-15 23 16-24-16-9 19-35 22-10 11-16 2-23-6z" id="path154" fill="#5a571e"/><path d="M1840 175c8-18 29 11 53-1-22 10 9 37-14 24-15-2-12-18-25-1-18 9 17 39-19 29-16 8-25-9-7-14-1-17-32 13-16-14-4-10 23-4 10-18 3-14 11-7 18-5z" id="path156" fill="#574418"/><path d="M1898-12c-16 23 8 10 19 16-13 15-57 30-32 53-22 10-36-10-19-27-24-21 47-31 15-46 6-8 15-5 17 4z" id="path158" fill="#63541e"/><path d="M1857 93c-19-11-83-24-55-55 7 8 42-1 33 32 3 17 28-2 22 23z" id="path160" fill="#dcc39d"/><path d="M1762 185c12-2-6-23-5-22-18-11 55-46 28-2-21 8 8 27-18 27l-5-3z" id="path162" fill="#666d18"/><path d="M1835 70c-4-14-29-45-1-37 12-28 8 19 26 9 11 11-23 25-25 28z" id="path164" fill="#a99164"/><path d="M1679 155c-8-25 13-20 27-20-3-18 18-16 6 0 13 10-24 39-33 20z" id="path166" fill="#76702e"/><path d="M1825 120c1-19 45-36 37-15-12 10-22 0-22 16-8 2-23 18-15-1z" id="path168" fill="#897643"/><path d="M1679 155c18 7 47-22 26 7-7 16-54 8-26-7z" id="path170" fill="#b4a27e"/><path d="M1782 200c-27 16-16-25 3-9 24-36 18 10-3 9z" id="path172" fill="#666d18"/><path d="M1808 210c7-20 48-6 18 6-4 3-26 3-18-6z" id="path174" fill="#ceb896"/><path d="M1807 215c20-5 31 2 9 10-12 14-32-2-9-10z" id="path176" fill="#826f43"/><path d="M1920 150c-10 15-39-21-9-9 14-31 2-4 9 9z" id="path178" fill="#786b34"/><path d="M1767 87c-1-10-14-17 3-20 4 14 17 9-3 20z" id="path180" fill="#a28a56"/><path d="M1777 188c-25 18 3-16 3-4l-3 4z" id="path182" fill="#4a530e"/><path d="M1787 210c-3-29 24 6 0 0z" id="path184" fill="#877a4f"/><path d="M1709 160c-4-17 27-8 0 0z" id="path186" fill="#76702e"/><path d="M1817 118c6-11 14 5 0 0z" id="path188" fill="#897643"/><path d="M1840 550c1 21 31 12 14 34 1 29-8-33-14 0-11 18-10 39-36 42 0 20-4 33 13 48 4 22-36 24-24 1-12-1-32 18-29-9-7-24 21-36-1-51-1-21 52-11 30-36-25 14-38-22-12-21 16-28 35 13 39 2-13-21 8-21 20-10z" id="path190" fill="#182e0d"/><path d="M1893 428c-5 12-23 27-5 12 13 4 4 34-10 20 29 33-27 5-29 27 19 0 3 25 15 35-18-1-3 18-19 15-10 8-29 7-42 15-28-9 15-25-3-44 9-18 36-3 22 15 15 0 4-37 10-36-18 0-2-26-11-36 6-13 41 12 19-1-10-35 38-19 56-34l-2 6-1 6z" id="path192" fill="#273b0e"/><path d="M1797 690c16-16 41 6 40-20 20 2 39 24 60 12 0 37-49 21-71 20-13 8-24-6-29-12z" id="path194" fill="#323912"/><path d="M1792 543c18 16 40-29 48 7-13 14-21-19-20 6 18 14-25 23-3 6-14 8-21 1-11-6-11-15-25 20-23-10l3-2 6-1z" id="path196" fill="#325022"/><path d="M1895 680c-9 23-15 5-32 2 36 0 9-56 17-79-2-14 2-74 3-30l3 105c1 4 6 3 9 2z" id="path198" fill="#5a5541"/><path d="M1832 685c-19 4-15-51-7-67 6-2 1 41 3 56-1 4-1 11 4 11z" id="path200" fill="#514f48"/><path d="M1830 608c-14 0-19-11 1-12 13-3 3 10-1 12z" id="path202" fill="#585b4a"/><path d="M1762 345c13-4 55-10 36 16 9 5 24 11 22 31-8 12-18 32-35 17 14-30-21-17-32-32-28 5-49-26-17-37 13-9 29 14 26 5z" id="path204" fill="#364a0d"/><path d="M1892 305c-24 8 22 15 1 25-14 5-29-6-36-4-8-20 8-5 10-24 8 3 19-3 25 3z" id="path206" fill="#655735"/><path d="M1853 333c-17 23-48-50-23-35 17-9 16-5 12 10 5 7 9 16 11 25z" id="path208" fill="#282e07"/><path d="M1792 328c-34-1 26-27 20-8l-20 8z" id="path210" fill="#364a0d"/><path d="M1820 385c-18-14-13-46 10-25-5 6-26 2-5 10-3 4-6 9-6 15z" id="path212" fill="#6d6c37"/><path d="M1833 325c19 9 10 26-5 23 0-6-8-29 5-23z" id="path214" fill="#364a0d"/><path d="M1875 245c-5-19-63 16-28-8 7-7 40-9 28 8z" id="path216" fill="#9c8f66"/><path d="M1800 353c-8-14 17-35 7-11 0 7 5 25-7 11z" id="path218" fill="#282e07"/><path d="M1867 233c-29 9 6-21 3-3l-3 3z" id="path220" fill="#635c2c"/><path d="M1820 293c-22 2 11-26 0 0z" id="path222" fill="#282e07"/><path d="M1878 303c-1 22-18-18 0 0z" id="path224" fill="#cabc96"/><path d="M1855 220c-33 4-7-32 12-39 6-2 13 18 8 17-2 10-6 20-20 22z" id="path226" fill="#826f43"/><path d="M1827 225c21-14 36 18 8 8-4 0-7-4-8-8z" id="path228" fill="#826f43"/><path d="M1840 175c-5 17-17 0 0 0z" id="path230" fill="#a18c61"/><path class="st167" d="M669 780c-8-3-16-4-25-1-11 3-23-2-35-2l-83 2c-53 2-106 1-158 1-2-6-2-12 0-17l73-1c4-3 9-2 14-2h111l164-3c30-1 60-2 90-7 15-3 29-2 44 0 4 6 3 9-7 10l-33 2c-7 1-14 0-16 9-1 4-7 5-11 6-18 0-35 4-53 3-19-3-37-2-56 2-7-1-14 4-19-2z" id="path232" fill="#a07049"/><path d="M1898 685c5-26 24 5 0 0z" id="path234" fill="#5a5541"/><path d="M1806 413c14-8 31-27 46-12 1 14-24 21-3 16-1 9-14 48 3 22 7 9-6 34-19 14-9-15-57 7-39-27 3-5 5-13 12-13z" id="path236" fill="#444c2b"/><path d="M1840 397c-15-4-31 40-31 6-21-11 14-17 15-13 9 0 11-3 16 7z" id="path238" fill="#5f6840"/><path d="M1907 406c-13-6-53-8-29-22 10 6 29 6 29 22z" id="path240" fill="#898b79"/><path d="M1850 402c-25-12 8-31 9-2l-3 2h-6z" id="path242" fill="#5f6840"/><path d="M1850 402c8-11 13-13 21 0-11 0-20 31-21 0z" id="path244" fill="#919575"/><path d="M1845 342c-31-13 31-5 0 0z" id="path246" fill="#3b390e"/><path d="M1845 343c14-13 11 10 0 0z" id="path248" fill="#364a0d"/><path d="M1651-10c4-17-36 1-9-12 12-26 40-11 55-10 5-10 26 4 15-19-7-12-14-31 4-14 27 4-4 44 22 40 7 4 2 20 16 12-9 10-43 4-32 25-31 11-5-59-35-29-20 2-19 23-36 7z" id="path250" fill="#8b762f"/><path d="M1742-22c-17 4-44-5-17-15 2-12-14-34 11-22 3 30 64 1 38 32-14 20-6-12-27 1l-5 4z" id="path252" fill="#e1c194"/><path d="M1662-32c-9 0-38-5-37-14-1-18 7-25 18-11 7-15 31-14 20 8 2 5 6 13-1 17z" id="path254" fill="#eeca95"/><path d="M1803-65c-3-7 34-2 38 6-5 20-1 25-22 11-14 5-9-11-17-17z" id="path256" fill="#755b1e"/><path d="M1667-62c-29 7-17-52-2-14 11 4 4 7 2 14z" id="path258" fill="#7c5e1a"/><path d="M1662-32c1-16-3-25 9-15 7 7 5 24-9 15z" id="path260" fill="#7c5e1a"/><path d="M1688-56c26 6-7 30 0 0z" id="path262" fill="#9e7c39"/><path d="M1674-37c-9-15 9-31 4-5l1 5h-5z" id="path264" fill="#c1ab66"/><path d="M1803-32c-8-20 25-22 0 0z" id="path266" fill="#74661f"/><path d="M1679-57c-11 12-9-5 0 0z" id="path268" fill="#7c5e1a"/><path d="M1903-45c2 14-27 2-32 21-14 6-45 30-27 0 2-21 17-21 28-16 14-3 33-50 41-18-14 3-14 1-10 13z" id="path270" fill="#74661f"/><path d="M1785-5c-1-14 6-45 18-20 17-4 16 16 34 11-16 8-19 23-39 9h-13z" id="path272" fill="#74661f"/><path d="M1845 38c-28-26 49-21 16 0-5 0-11 5-16 0z" id="path274" fill="#907744"/><path d="M1777 31c9 29-42 7-10 4 4 0 8-1 10-4z" id="path276" fill="#a18d59"/><path d="M1747 40c-17 9-26-15-4-15-1 10-1 7 4 15z" id="path278" fill="#999049"/><path d="M1760 23c-24-28 18-13 0 0z" id="path280" fill="#887d3d"/><path d="M1873 8c-8 24-26-2 0 0z" id="path282" fill="#907744"/><path d="M1820 3c15 24-12 12 0 0z" id="path284" fill="#74661f"/><path d="M1828 26c-2 10-7-8 0 0z" id="path286" fill="#a99164"/><path d="M247 234v181c-7 0-9-9-16-10-6-8-7-17 1-25v-10-100c10-10 9-24 13-36h2z" id="path288" fill="#ad2e4d"/><path d="M232 380l-1 25-25 3c-4-1-7-3-7-7v-5c2-8-4-18 4-22 10-4 21-2 29 6z" id="path290" fill="#6585ac"/><path d="M1840-62c-13-2-50-2-19-14 2 3 34 11 19 14z" id="path292" fill="#58590d"/><path d="M1890 462c1-18 1-19-14-10-20-18 46-27 42 1 1 14-21-13-28 9z" id="path294" fill="#768348"/><path d="M1850 403c10 9 7 34-7 25 14-20-17 7-2-16 2-4 8-4 9-9z" id="path296" fill="#5f6840"/><path d="M1892 428c12-8 3 12 0 0z" id="path298" fill="#273b0e"/><path d="M1894 47c-2 7-6-7 0 0z" id="path300" fill="#404309"/><path d="M59 356c6 7 14 4 21 4l16 1c2 4 8 4 7 10s-7 4-10 5c-12 4-26 1-36 9h-4c-5-3-15 9-17-5-1-14 2-20 15-23l8-1z" id="path302" fill="#6883a4"/><path d="M866 753c-41-3-81 6-122 6l-20 1c-95 2-189 3-284 2v-4l150-1 137-3 10-1c2-4 6-4 10-4 43-4 86-1 129-7h25c4-1 9-3 13-2 31 1 62-5 93-3h32c7-2 14-3 21-2 5 1 10 1 10 8-7 7-17 7-26 7-43 0-86 5-130 6-10 0-19 2-29 3-8 0-14 0-19-6z" id="path304" fill="#d7a87d"/><path d="M1797 690c19 23-32 3-42 8-1-23 33-19 42-8z" id="path306" fill="#9d7f6c"/><path d="M1840 702c16-4 68 8 30 8-10-2-25 5-30-8z" id="path308" fill="#667c16"/><path d="M11 693c1-3-1-9 5-9 8 0 6 7 7 12 2 5-2 7-6 7-9 0-5-6-6-10z" id="path310" fill="#3e2916"/><path d="M1650-78c11 17-8 46-13 12 2-7 4-13 13-12z" id="path312" fill="#ae7d44"/><path d="M1617 100c16 5-3 20 18 17 5 8-11 16 4 23-9 7 9 28-13 22-12-6-40-11-14-18 3-10-27-3-8-20-3-14-12-35 13-24z" id="path314" fill="#8b8148"/><path d="M1541 95c19 19 5-14-7-20-2-14 13 0 16-4 12 9 3 59-9 24z" id="path316" fill="#7f7239"/><path d="M1554 68c-22-18 19-28 12-1 6 9-10-1-12 1z" id="path318" fill="#977d4b"/><path d="M1526 100c-6-12 24-18 7 1-2 2-5 0-7-1z" id="path320" fill="#7f7239"/><path d="M1574 156c-5-9 43-8 15 3-5 1-10-1-15-3z" id="path322" fill="#8b8148"/><path d="M1637 78c-21-2-41-52-7-37 14-7 30 9 40-11 22 1-12 23 17 15 16 21-38 28-50 33z" id="path324" fill="#353705"/><path d="M1685 58c29 1 19 21 7 36 12 2 37-30 28-6-2 20-44 19-43-6-13-9-39 18-38-7 15-5 58 0 46-17z" id="path326" fill="#998f44"/><path d="M1574 156c21-10 49-4 61 3 12-29 17 28-9 16-17-7-44 15-47-11-3-1-11-4-5-8z" id="path328" fill="#d3c5ae"/><path d="M1642 165c-4-14 6-30 18-14 7 13-12 41-21 23 2-2 6-6 3-9z" id="path330" fill="#8b8148"/><path d="M1656 108c20 13-3 32-17 14-5-8-15-18 7-19 17-2 3 12 10 5z" id="path332" fill="#8b8148"/><path d="M1745 63c14 11-8 18-17 14 15-7-9-29 15-17l2 3z" id="path334" fill="#a38d53"/><path d="M1565 55c-31-13 25-23 2-4l-2 4z" id="path336" fill="#857538"/><path d="M1632 115c28-8 21 11 3 5 0-4-7 0-3-5z" id="path338" fill="#d2bf8e"/><path d="M1717 98c13-21 23 15 0 0z" id="path340" fill="#aea365"/><path d="M1537 70c-10-4-11 24-18 3 15-8-15-25 12-27 20 11-14 5 3 19 6-2 7 2 3 5z" id="path342" fill="#756a2b"/><path d="M1524 213c-2 32-29-8-31 22-24-8-50-48-8-51 11-9 29-23 34 1 22-6 35 2 57-8 4 28-36 32-49 36h-3z" id="path344" fill="#5b6e1f"/><path d="M1534 215c-2-17 45-9 43-38 15-5 52-19 52 1-13 10-26 9-39 10-17 14-19 59-44 32 9-23 4-11-12-5z" id="path346" fill="#737441"/><path d="M1543 181c-21 19-30-9-7-17 12-10-1 12 10 13l-3 4z" id="path348" fill="#8b8269"/><path d="M1491 183c-6 14-38 8-14-1h7z" id="path350" fill="#898c49"/><path d="M1524 176c20-6-3 17 0 0z" id="path352" fill="#d3c5ae"/><path d="M1561 180c-10 15-11-7 0 0z" id="path354" fill="#d3c5ae"/><path class="st106" d="M420 510c-7-4-15-3-22-3 15-6 31 2 47 1l22 2c32-2 64 4 96 7 27 3 54-1 82-7 13-3 27-5 42-5 2 2 4 5 4 8 3 48 8 96 5 143-2 3-3 8-8 5-3-5-3-10-4-15v-31c0-4 1-9-6-9-3 0-6-3-7-7-2-4-4-4-8-2-2 2-7 4-9 2-10-11-20-3-31-3h-66c-6 0-12 0-18 2h-12c-14-4-29-2-43-4l-23-5c-2 0-5 0-6-2-4-12-14-19-21-29-2-3-2-7-1-10 6-16 1-28-13-38z" id="path356" fill="#bd7f4a"/><path d="M739 650c4-19 34-41 57-43 14-2 28-3 42-2 15 0 30 1 44-7 2-2 5-1 8 0 6 4 2 9 0 13l-9 14c-12 13-8 27-2 40 4 11 13 16 25 15 14 0 28 1 33 18 1 4 4 5 8 5s4-5 4-8v-18c1-6 1-12 8-13 8 3 7 10 7 17 0 9-3 17-3 26 1 8-4 15-12 16-30 4-60 5-90 1-8-5-7-15-12-21-1-4-1-8-5-11-20-11-39-21-62-16l-16-2c-5-2-9 0-14-2-10-4-14-12-11-22z" id="path358" fill="#c19266"/><path d="M892 600c-13 2-22 13-36 11-20-3-40 1-60-4l35-18c6-3 9-3 12 4 2 3 4 7 8 6 6-1 6-6 6-10-1-9 1-18-2-27-2-7-4-11-10-4l-4 4c-6 4-14 7-20 5-8-3 2-9 0-14v-5c0-7 7-12 8-18 2-7-13-3-13-12 14-7 26-1 39 0 17 3 34 8 52 4 20 2 41 7 61 3 5-1 9 1 13 4 4 6 4 11 1 17-5 5-8 2-12-1-2-3-5-5-8-3s-3 6-2 9v56c0 5 0 10-3 15-10 3-9-5-10-10v-30c0-7 1-17-5-19-5-3-9 6-14 10-8 6-13 14-20 21-5 4-9 9-16 6z" id="path360" fill="#d29155"/><path d="M907 527c-27 3-52-7-78-8l-13-2-2-5c-21 1-41-1-61-3-9 0-20 2-30-1-23-10-47-12-71-9-6 1-12-1-18-2-17-2-33-3-50-2-39 1-79-3-119 2-25 3-52-3-78-2-18 0-35 8-54 5-6-1-16 3-16-10h28c4-3 9 0 13-3 6-3 13 1 20-2h83c11-2 23-3 34-3h143c12 0 24-3 36 0l125 5 2 3c13 10 27 16 42 20l53 10c5 0 10 0 11 7z" id="path362" fill="#d2945e"/><path d="M691 657c1-42-2-84-5-126v-26c27 0 25-2 25 25 0 32 3 63 3 95 5 4 5 10 5 16l1 30c-1 6-2 12-1 17 0 4-2 7-1 10-1 9-1 18 3 26 0 2 0 5-3 6-9-1-15-9-24-8l-1-27c-4-13-4-25-2-38z" id="path364" fill="#b04e05"/><path class="st223" d="M714 673v-48c10 0 20 1 18 15 0 4 3 8 7 10 1 18 16 17 28 20v7c-3 6-2 14-9 18-15-2-29 5-43 5l-1-11v-16z" id="path366" fill="#a97b59"/><path d="M724 507c30-1 60 2 90 5-4 4-9 3-13 3l-70-5c-3 0-5-2-7-3z" id="path368" fill="#975c27"/><path class="st106" d="M216 500c2-5 6-5 11-5-2 6-7 5-11 5z" id="path370" fill="#bd7f4a"/><path class="st106" d="M272 495c1-4 4-5 7-5-1 3-4 5-7 5z" id="path372" fill="#bd7f4a"/><path d="M256 621c-8 5-11 13-9 24v17c-9-7-2-16-6-22-5 5-4 11-4 16v32c0 7-2 12-7 14-7 3-22-6-22-12l2-62c0-6 6-5 11-6 11 0 23 2 35-1z" id="path374" fill="#4e2f11"/><path d="M224 710l-17-1c9-4 19-2 28-2 17 0 17 0 17-17v-8c4 5 3 9 3 13 0 10 7 9 14 9 9 1 5-6 5-10l-1-67c0-8 4-7 9-7l82-3v5c-5 7-13 5-21 6-9 0-14 3-12 14 2 14 1 29 1 43 0 10 3 15 14 14 7 0 13-1 18 6-4 4-9 2-14 2l-126 3z" id="path376" fill="#3a2e27"/><path d="M192 707h-3c-4-1-6-3-6-8v-70c0-3 1-5 3-6l10-1c-3 4-4 9-4 15v70z" id="path378" fill="#493d1a"/><path d="M365 705h-29c-6 0-9-3-9-9-1-21 1-41-2-61-1-8 4-13 12-13h28v83z" id="path380" fill="#070604"/><path d="M420 510c20 4 26 14 19 33-4 12-4 19 9 22 3 1 7 4 7 7-1 20 15 15 25 17 15 4 31 2 46 5-4 6-11 4-16 4-15 2-29-3-43 4-4 5-4 10-5 16l1 8c0 7 2 14-6 18-2 4 0 10-2 13-5 11-1 29-21 30-7 0-6 10-11 12-4-6 0-13-3-20v-64-105z" id="path382" fill="#ac764b"/><path class="st101" d="M187 623c-6 20-2 41-2 62-1 8-3 16 4 22-4 1-7 0-7-6l1-75c-1-3 0-5 4-3z" id="path384" fill="#090605"/><path class="st104" d="M173 640c-2-4-2-7 2-12 2 5 3 8-2 12z" id="path386" fill="#a2693c"/><path class="st111" d="M133 370c-4-1-10 1-9-5 0-6 14-16 22-17 6 0 9 3 8 9 0 16-15 8-21 13z" id="path388" fill="#6683a7"/><path d="M768 255c11-18 24-35 36-53l10-16 45-56 32-36c4-4 8-6 13-3 0 9 1 18 4 27-25 22-45 49-69 72-9 13-18 28-31 38-9 6-11 18-19 25l-10 10c-4 2-6 5-11 3-5-3-2-7 0-11z" id="path390" fill="#b73955"/><path d="M907 118c-11-9-12-19-3-28 23 4 44 11 66 17 4 2 9 4 14 3 18 9 37 13 56 21 2 7-3 7-7 6-5-1-10-1-15 3 10 4 19 6 27 11 6 3 10 7 2 12-8 2-16-1-23-4-31-12-64-20-96-29-8-2-18-2-21-12z" id="path392" fill="#c24f52"/><path d="M799 490v-3c7-5 7-8-5-8 16-13 33-17 50-23 4-2 6 4 9 7 7 12 13 12 20 0 3-5 6-4 10-4 5 1 8-2 8-7s-3-8-8-7c-15 2-10-10-11-15-2-9 7-4 11-5h11c2-3 5-4 8-3l3 1c3 3 8 4 10 8 3 5 6 2 9 0 3-3 6-5 10-5h9c9 6 19 5 29 4 16 0 32 5 48 6 7 0 14 2 17 8 4 14 2 28 2 41l-1 10c2 8 1 16-9 19-22 0-43-3-64-5-19-3-38-3-57-7l-7-2c-28 2-56-8-85-5-5 1-12 2-17-5z" id="path394" fill="#dc9207"/><path d="M877 420c-32 2-63-8-94-6-4 1-8-2-12-4-8-10-7-22-7-33-2-31 0-61 2-92 3-7 10-7 14-2 11 14 28 20 39 35 19 23 38 45 50 72 3 7 7 10 14 10 9 0 17 4 26 5 8 1 11-2 11-9s-1-14 1-20c1-3 3-5 7-4 3 2 4 5 4 9 0 15 4 30-2 45-3 4-7 3-11 3-5 0-10-2-14-4v-1c-9-2-18-11-28-4z" id="path396" fill="#937861"/><path class="st240" d="M714 405c0-17-2-33 0-50 2-19 9-36 22-50l11-19c3-5 6-9 12-11 5 2 6 7 6 12-1 12 3 24-5 35-3 4-1 11-1 17s1 12-3 18c-5 5-8 12-11 18-4 9 2 6 6 5 10 6 12 13 8 29-8 1-17 3-23-1-6-3-1-13-3-20-9 5-9 16-19 17z" id="path398" fill="#bcae9c"/><path d="M751 357c4-7 2-14 3-21 1-8-5-16 5-25 7-6 2-24 0-36v-12c3-3 5-7 9-8 1 3-1 7 1 10l2 4c2 5 2 9-2 14-1 42-1 85 2 128l-13-1c-4-5-4-11-3-16 0-4 0-8-4-11-6-9 0-17 0-26z" id="path400" fill="#9f9384"/><path class="st106" d="M673 482c-71 5-142 2-213 3 10-4 21-5 31-5h172c3 0 7 0 10 2z" id="path402" fill="#bd7f4a"/><path class="st243" d="M877 420c9-7 18-6 28 4l-11 1c-4-8-11-3-17-5z" id="path404" fill="#8c6239"/><path class="st232" d="M603 402c16 2 32-2 48 2-16 0-32 2-48-2z" id="path406" fill="#84a2d0"/><path class="st232" d="M463 404c11-4 23 0 35-2-12 4-23 3-35 2z" id="path408" fill="#84a2d0"/><path class="st106" d="M377 485c-6 4-13 2-20 2 7-4 14-2 20-2z" id="path410" fill="#bd7f4a"/><path class="st240" d="M696 406h18c-7 3-13 3-18 0z" id="path412" fill="#bcae9c"/><path class="st106" d="M358 487c-4 4-9 3-13 3 4-3 8-3 13-3z" id="path414" fill="#bd7f4a"/><path d="M1451 731c-23 4-46-3-69 1-36 6-73 5-110 10-24 4-50 2-74 6-26 3-52-1-78 5-25 11-52 13-78 13-25 0-50 0-75 2-36 3-71 5-107 5-7 0-13 4-21 4-6-1-11-2-17 0-8 0-17 3-23-5l7-3c-2-3-9-3-7-8s7-3 11-3c19-2 38-2 57-5 27 1 54-3 82-4l86-4 35-2c4-6 11-7 18-7l44-3c53-2 106-6 158-10l49-2c24-1 49-5 73-4h40c-4-1-13 1-21 2s-12 0-10-9c14-6 28-4 42-5 13-2 27 0 40-3 4-1 9 0 11 4-4 4 0 10-2 14l-61 11z" id="path416" fill="#a87852"/><path d="M1514 705l-92 5c-6 8-15 7-23 7-37 1-73 6-110 5-6 0-13 1-16-6 1-5 5-5 9-5l84-6c18 0 35-1 53-3 5-1 8-4 12-6 9-2 19-2 28 0l18 1c16 3 33 1 50 2 2 1 6 3 5 5-2 4-7 2-10 2l-8-1z" id="path418" fill="#e4a982"/><path d="M1622 703c1 12-47 11-29-4-13-35 57-27 27 1l2 3z" id="path420" fill="#a5931b"/><path d="M1589 705c-7 20-61 1-62-3 11-13 28-18 36-1 8 2 22-4 26 4z" id="path422" fill="#9e8544"/><path d="M1622 703c-14-17 41-20 54-16 21-11-22-55 18-49 21-4 24 53 15 33 25 27 0-51 31-18-9 17 3 33 16 13 6-9 7-35 11-9 6 23-4 42-27 40-28 18-70 3-104 7l-7-1h-7z" id="path424" fill="#4a4a12"/><path d="M1679 705c23 0 52-10 71-3-19 11-48 6-71 3z" id="path426" fill="#7f6e19"/><path d="M458 597c11-5 23-1 34-2l33-1h115c1 6-4 8-8 8-27 1-54 2-79-1 5 9 15 9 25 8h34c12 1 23-1 30-12 9 8 10 25 1 38l1 60c0 7-2 10-10 10l-166 2c-4 0-7 1-9-2 6-8 14-5 22-5 7-1 9-3 11-10 3-17 3-34 3-51 0-12-3-15-15-13-8 0-15 4-22-1v-7c5-7 10-9 18-8h43c2 0 5 0 7-3-4-4-10-4-15-4h-39c-5 0-10 0-14-6z" id="path428" fill="#332b26"/><path d="M641 597c-4-4-9-2-14-2l-89-1c8-4 16-1 24-2h59c3 0 8 1 11-2 7-7 13-4 18 3 3 4 7 4 10-1 2-4 4-9 10-7s3 6 3 10c0 3 1 7 4 7 6 2 5-6 11-9v51c-2 5-2 10 0 15 2 1 2-1 2-3 5 13 2 25 2 38-5-8-6-20-19-24-7-2-9-1-13 4-1 3-2 7-6 6s-4-5-5-8c-4-12 1-26-7-38-3-12 3-25-2-37z" id="path430" fill="#ad7953"/><path d="M458 625c10-4 21-5 32-5 7 0 11 3 10 10-1 18 3 37-3 55l-1 5c9 16-4 13-12 14h-25l-1-60v-19z" id="path432" fill="#050404"/><path class="st103" d="M420 680c4 6 1 13 2 20v4c-4-8-1-16-2-24z" id="path434" fill="#af5005"/><path class="st252" d="M756 692l8-18c6 1 7 5 5 10 6-2 12-2 19-2 4 0 11 1 10 6 0 6-6 6-10 6l-9 1c-6-1-8 3-8 8 0 2-2 5-1 6 8 16-2 28-8 42h-15c-10 0-19 0-29-2v-9c4-4 4-4 14 0 15 5 26-3 25-19-6-3-12-6-15-12s-10-2-15-5l-2-3c5-7 13-8 21-8 3 1 7 2 10-1z" id="path436" fill="#372316"/><path d="M762 717c4 11-1 20-9 26s-17 6-27 0c-2-2-4-6-8-3-2-4 1-7 0-10v-8c8-6 18-6 27-4 6 1 11 1 17-1z" id="path438" fill="#503b2a"/><path class="st124" d="M719 750h28v2h-1l-9 1c-6-2-13 1-18-3z" id="path440" fill="#644f37"/><path d="M1722 353c-4 22 21 8 23 20 24-15 12 22 33 4 29 6 10 38 4 52-7 9-34 10-26 8 29 0 25 41-4 28-17-11-13-15-22 5-10 9 0 28-16 40-9 25-7 20 9 6 22 14-17 46-35 28-41-2-41 42-54 65-20-1-68-24-40-50 18-5 19-45 28-69-3-40 40-23 59-36-2-21 46-33 39-39-22 8-2-24-17-9-9-5 4 36-21 21-13-9-5-40-16-12 2 11 29 18 7 34-11 4-43 21-32-6 30-24-26 24-19-13-10-16-14-66 15-54 10 17-22-35 9-32 21-9 38 31 44-3 18-14 56-15 68 2-16 0-28 2-24 9-13-1-37 6-12 1z" id="path442" fill="#29430e"/><path d="M1752 335c-30 10-40-22-71-15-32-6-50-48-12-62 18 6 26 13 32-9 17-10 39-1 54-10 6 21-51 19-27 38 19-19 19 8 18 17 17 9 0-27 13-4 16 21-8 28-24 23-20 13 24 13 17 22z" id="path444" fill="#455614"/><path d="M1719 245c-11-8-6 18-21 8 19 36-45 6-19-13 11-21 28-34 47-34-5 23 22-13 11 9 2 13-4 27-18 30z" id="path446" fill="#867a4a"/><path d="M1752 335c-20-4-42-31-7-30 18 1-10 24 10 6 16-26 21-3 6 11-2 3-5 31-9 13z" id="path448" fill="#5f6332"/><path d="M1725 240c-1-24 35-34 40-18-10 11-27 33-43 25l2-3 1-4z" id="path450" fill="#68612d"/><path d="M1781 296c12 6-11 12 0 0z" id="path452" fill="#5f6332"/><path d="M1787 200c7 18-15-3 0 0z" id="path454" fill="#404309"/><path d="M1610 230c-20-12-1-60 22-33 2 8 47 10 23 26-16-10-34-11-45 7z" id="path456" fill="#c3b898"/><path d="M1610 230c5-37 81 1 36-4-7 5-9-18-25-3-17 11 19 30-7 22-3-4-2-10-4-15z" id="path458" fill="#5f692f"/><path d="M1638 197c-8 13-26 13-18-6-24-15 45-22 16 1l2 5z" id="path460" fill="#737441"/><path d="M1662 218c-2-12-23 0-11-17 18-18 38-13 16 10l-3 3-2 4z" id="path462" fill="#797939"/><path d="M1712 196c-12 12-29 21-14-2-22-13 31-35 10-9-2 5 7 7 4 11z" id="path464" fill="#74662d"/><path d="M1677 245c-3 7 11 36-2 28 8-20-40-12-20-28 7 2 14 2 22 0z" id="path466" fill="#5f692f"/><path d="M1647 263c-9 7-39-8-15-18 10-1 8 14 15 18z" id="path468" fill="#5f692f"/><path d="M1712 196c-15-8-2-26 0-8 6-5 22-23 21 0-7 2-14 7-21 8z" id="path470" fill="#a89263"/><path d="M1674 221c-11-15 25-19 4-3l-4 3z" id="path472" fill="#797939"/><path d="M1659 230c14-6-1 17 0 0z" id="path474" fill="#5f692f"/><path d="M1639 250c0-16 14-1 0 0z" id="path476" fill="#5f692f"/><path d="M1798 62c16 1 51 29 15 16-10-2-20-2-15-16z" id="path478" fill="#977c53"/><path d="M1800 115c-7-27 17-20 12-4-4-2-9 2-12 4z" id="path480" fill="#404309"/><path d="M1787 85c11-14 27 10 3 8-5 1-5-7-3-8z" id="path482" fill="#9a8553"/><path d="M1828 85c37 5-24 29 0 0z" id="path484" fill="#dcc09a"/><path d="M1792 51c-4 33-17-38 0 0z" id="path486" fill="#c4aa77"/><path d="M1823 92c23 17-15 20 0 0z" id="path488" fill="#977c53"/><path d="M1828 85c-6 16-11 0 0 0z" id="path490" fill="#977c53"/><path d="M1827 225c15 4 28 12 4 15-17-3-33 4-17-10 3-5 9-5 13-5z" id="path492" fill="#ccbca2"/><path d="M1810 230c-1-19 23 3 0 0z" id="path494" fill="#c8b89d"/><path d="M1845 170c17-3 0 20 0 0z" id="path496" fill="#9f825c"/><path d="M1815 230c9-17 16 3 0 0z" id="path498" fill="#826f43"/><path d="M1860 35c23-15-4 26 0 0z" id="path500" fill="#a99164"/><path d="M1787 149c-3 18-34 21-10 5l5-3 5-2z" id="path502" fill="#404309"/><path d="M1860 35c5 11-10 10-16 17-9-7 9-21 16-17z" id="path504" fill="#e0c8a0"/><path d="M1765 645c0 29-43 12-22-6-32-7 9-47-8-67 9-13-26-55 6-42 15 10 44 23 28 41 12 22 25-13 35 15 4 31-32 13-37 30 2 8 23-2 6 13 16 9 5 15-8 16z" id="path506" fill="#324e14"/><path d="M1749 537c-24 3-16-29 7-18 18-5 44-44 56-20-18 12-5 39-26 50 7 16-16 17-18 6-18 11-5-17-19-18z" id="path508" fill="#486935"/><path d="M1825 617v68c-16 0-22-29-33-27 8-9 15-27-2-30 14-6 22-20 35-11z" id="path510" fill="#0a0f07"/><path d="M1795 690c-32 1-19-28 5-20 8 6-8 13-5 20z" id="path512" fill="#323912"/><path d="M1786 660c-8 14-9-7 0 0z" id="path514" fill="#323912"/><path d="M1794 660c12-7 3 10 0 0z" id="path516" fill="#323912"/><path d="M1807 505c11-14-24-15 2-26 9-15 20-11 19 5 21-29 16 13 7 25 17 20-38 26-15 1 7-14-9 1-13-5z" id="path518" fill="#325022"/><path d="M1828 473c-26 5-40-41-8-32-4 21 14-17 11 8-19 7 11 17-3 24z" id="path520" fill="#7f8273"/><path d="M1792 542c-12-13 17-7 2-25 3-18 27-1 12 13-1 7-7 12-14 12z" id="path522" fill="#325022"/><path d="M1868 445c-10 24-9-24 0 0z" id="path524" fill="#74815e"/><path d="M1852 452c-7-15 15-15 0 0z" id="path526" fill="#77865f"/><path d="M1770 445c-13 12-18-4-25-13 5-24 19 24 22-7 17 14 22-31 27-3 2 13-9 31-24 23z" id="path528" fill="#666f3e"/><path d="M1800 353c16 2 12 48-4 16-8-5-5-14 3-16z" id="path530" fill="#6d6c37"/><path d="M1777 362c16 8-28 13 0 0z" id="path532" fill="#707c3a"/><path d="M1790 413c15-20 22 15 0 0z" id="path534" fill="#666f3e"/><path d="M1762 345c22 12-12 9 0 0z" id="path536" fill="#282e07"/><path d="M1829 316c-4-17 16-4 0 0z" id="path538" fill="#3b390e"/><path d="M1810 365c-14-4 5-19 0 0z" id="path540" fill="#c3bf8f"/><path d="M1845 198c13 6 3 21 0 0z" id="path542" fill="#574418"/><path d="M744 775c-5 7-13 6-19 5-13-3-26-2-39-3 19-5 38-1 58-2z" id="path544" fill="#e4925c"/><path d="M1770 445c16-12 30 2 31-3 10-8 11 15 0 11 4 37-31 36-31-8z" id="path546" fill="#818176"/><path d="M1791 413c32-9-9 38 0 5v-5z" id="path548" fill="#918f7a"/><path d="M1840 417c-6 22-31-4 0 0z" id="path550" fill="#898f81"/><path d="M1805 421c24 10 0 23 0 0z" id="path552" fill="#7f8273"/><path d="M1834 411c-6 10-8-12 0 0z" id="path554" fill="#5f6840"/><path d="M1815-62c13-21 17 11 0 0z" id="path556" fill="#473c07"/><path class="st292" d="M1273 715c14 5 28 2 42 2l79-5 27-2c2 5 5 6 11 6h35l-33 3c-46 1-92 6-138 9-56 2-112 8-168 9l-58 5c-10-6-20 0-30 0-15-10-23-10-32-1l-83 4-24 2c-6-13-2-22 10-22l110-6c25 6 50 3 75 3 29-1 58-8 85-1l-6-1c4-14 15-8 23-9 14 3 29 2 43 1 11-1 22-5 32 3z" id="path558" fill="#ba8a5d"/><path d="M1023 725l-115 5c-11 1-4 11-7 17l-155 5v-2l17-1c12-10 27-7 41-7l16 1c14 1 26-7 42-3-13-11-13-13-5-21 29 0 58 0 88-2 8-1 12-4 12-12 1-9-1-17 2-26 4 0 4 3 5 6 5 10 5 10 12 1l5-4c7-1 12 2 17 7 6 6 14 8 22 7h45c9 0 12-3 13-12 0-6-2-14 4-20 8-1 8 6 9 11v22c1 4 1 9 5 9 11 0 22 3 32-4 5-2 10-2 14 1 11 7 23 8 34 3 13-4 26 0 38-2 6 2 11 3 13 10-10 2-19 2-28 0-8 0-16-1-23 5-9 3-17 1-26 1l-32 3c-27-1-55 3-82 2-5 1-9 2-13 0z" id="path560" fill="#7e6049"/><path d="M1007 742c-4-8-2-13 6-12 10 1 24-6 26 12h-32z" id="path562" fill="#90643c"/><path d="M1689 70c-11 0-65 18-40-2 15 2 38-26 40 2z" id="path564" fill="#58590d"/><path d="M1689 70c18-3-15 14 0 0z" id="path566" fill="#58590d"/><path d="M1639 178c-27 1-29 34-46 46-8 13-50 22-41-4 14-9 13 24 14-5 10-18 26-49 41-29 4-9 66-32 32-8z" id="path568" fill="#50591c"/><path d="M1656 108c-7 14-24-6 0 0z" id="path570" fill="#d4c694"/><path d="M1048 160c1-2 0-4-2-4l-34-11c-3-1-5-1-5-4s1-5 4-5c8-1 16-10 24-2 2 1 4-1 5-3a992 992 0 0 1 178 74l15 7c23 3 42 14 57 31l91 57 5 4c8 9 19 13 29 20l4 1c6 5 12 11 19 15 4 3 8 6 4 11-3 5-8 3-12 1l-23-15c-12-8-24-14-38-18-10-2-17-9-25-13l-104-57c-17-10-35-16-52-26-5-6-12-5-19-8-23-10-46-21-71-30l-41-15c-5-2-10-3-9-10z" id="path572" fill="#cc5a5b"/><path d="M1598 367c-16 7-45 16-31-12-7-20 35-39-1-44 2-12-3-42 20-28 10-18 40-6 18 12 24 3-1 22 4 37-17 7 8 31-10 35z" id="path574" fill="#486b1a"/><path d="M1654 272c-14 18 25 31-1 51-28 14-31-19-19-19-32 2 14-27 20-32z" id="path576" fill="#596c23"/><path d="M1592 278c1 25-23-9-26 14-18-7 19-40 21-19-14 2-3 14 5 5z" id="path578" fill="#737b45"/><path d="M1565 310c19-8 17 14 30 7-5 14-25 16-21-3-8 9-20 15-9-4z" id="path580" fill="#7e804d"/><path d="M1617 305c-7-9-32 3-17-17 14 0 14-25 15 4 0 3 14 18 2 13z" id="path582" fill="#89875a"/><path d="M1621 306c6-1 36-26 18-2-1 8-18 13-18 2z" id="path584" fill="#abac80"/><path d="M1566 292c-1 13-29 21-12 2 4-2 8-2 12-2z" id="path586" fill="#6b7052"/><path class="st308" d="M1416 323v2c-12-4-24-8-30-21l30 19z" id="path588" fill="#b75558"/><path d="M1599 223c-7-27 23-15 0 0z" id="path590" fill="#8d8c57"/><path d="M1586 225c8-15 20 10 0 0z" id="path592" fill="#8d8c57"/><path d="M1524 213c10-8 13 17 0 0z" id="path594" fill="#737441"/><path class="st123" d="M688 660c-3-5-3-10 0-15v15z" id="path596" fill="#9e7d64"/><path d="M892 600c17-10 25-29 41-40 4-3 7-10 13-7 5 2 3 8 4 12 3 14 1 29 2 43 0 5-1 10 2 15 8 10 8 31 0 42v33c0 5 1 12-6 12s-16-2-18-10c-3-11-11-16-23-15-21 2-34-9-38-30-4-16 2-29 12-40l11-15z" id="path598" fill="#cfa174"/><path d="M955 664l-1-42c0-25 2-51-1-76-1-5-1-11 6-11 6 0 16-7 16 7 0 3 2 5 4 6 6 3 6 8 6 14v108c0 6 0 11-4 15-2 14-8 19-17 14-8-4-3-13-5-19 0-6 3-12-4-16z" id="path600" fill="#c88406"/><path class="st252" d="M857 720c-2 6-4 13 7 13 4 0 5 3 5 7 0 5-4 4-7 4-13-1-25 2-38 3-8-2-17-3-22-10-3-3-6-2-10-2-11-1-14-6-10-18l12-9c6-5 6-12 5-19 0-4-7-6-2-11 4-4 10-3 15 0 3 3 6 7 11 6 13-2 20 6 26 15 5 6 7 13 8 21z" id="path602" fill="#372316"/><path d="M811 680h-13c3 8 10 15 6 25-3 9-10 11-17 14l-7-2-10-8c-1-1-2-2-1-4-8-16-8-16 10-16 6 0 11 0 16-2h-7c-11 0-24 4-24-13l2-4c5-2 9-1 13 2 6 3 12 0 18 0 6 1 12 0 14 8z" id="path604" fill="#997a61"/><path class="st223" d="M811 680c-7-5-15-6-23-4-3 1-10 5-9-4 27-7 49 4 70 19 3 3 2 5 1 8-10-6-17-14-31-9-9 3-8-5-8-10z" id="path606" fill="#a97b59"/><path d="M980 622l-1-74 1-18c-1-5 2-7 6-8 14-5 28-11 44-9 5-5 5-11 5-18 16-7 30-3 45 4 3 5 3 11 3 16 1 29 4 58 3 87 2 21-10 37-23 51-14 16-40 10-48-11-3-9-8-12-17-12-7 0-14-2-18-8z" id="path608" fill="#b69275"/><path d="M1029 513l-50 17c-24 4-48 1-73-3-21-4-42-9-63-11-17-2-29-16-46-18-2 0-5-2-4-5 1-4 4-3 6-3 42-1 83 4 125 9 31 4 63 6 95 11 4 0 8 0 10 3z" id="path610" fill="#e2a165"/><path class="st125" d="M762 717c-2 3-2 10-7 7-12-6-24 2-37-2-7 1-4-5-4-8v-14c13-7 27-12 42-8-2 5-6 5-10 4-8-1-15 1-21 6-1 2-5 3-5 5 1-2 3-4 6-4l10-3 8 1c0 12 11 12 18 16z" id="path612" fill="#84593a"/><path class="st125" d="M714 673c3 5 3 11 0 16v-16z" id="path614" fill="#84593a"/><path d="M280 662v-31c-1-8 2-9 9-8 39 0 33-3 33 32v36c0 14 0 14-26 14-10 0-18 0-16-14v-29z" id="path616" fill="#040303"/><path class="st316" d="M458 597a2132 2132 0 0 1 67 2c4 1 11-1 9 7-1 6-2 10-10 9-18-3-36 3-53-1-5-1-8 4-13 3v-20z" id="path618" fill="#0c0909"/><path class="st317" d="M1048 160l66 25c26 12 53 20 76 35-4 10-12 8-20 7-7 0-12-4-18-7-16-9-32-17-50-20l-6-1c-20-16-45-9-67-13-20-4-39 0-57 4-5 2-10 1-15 0-3-1-7-2-10 2 4 5 15 7 10 17-4 3-9 1-14 0-28 6-56 6-83-4-10-3-20-5-23-17l56-63c4-4 7-8 14-7l78 22 47 16 16 4z" id="path620" fill="#b9835a"/><path class="st243" d="M769 282v-14l8-8c8-10 19-19 23-32 1-3 4-2 6-3 6 12-1 19-7 27-5 5-15 10-13 17s13 3 20 5c18 6 36 1 54-4 14-5 17-3 17 12 0 4 0 7 4 8 6 4 12 9 20 10 17 1 27 10 29 28v31c0 5 0 10-5 13v31c0 8-3 10-10 9-13-1-25-8-39-6-7 1-10-7-12-13-10-27-28-48-46-68-9-11-16-25-32-26-4 0-4-4-4-7-3-5-6-9-13-10z" id="path622" fill="#8c6239"/><path class="st318" d="M924 325c-1-16-13-19-26-20-10 0-17-8-26-12-5-3-1-9 0-14 1-2 3-4 0-6-2-2-4-1-5 0-28 16-57 6-86 5-5 0-6-2-4-7 3-7 6-14 13-18 11-6 13-17 16-27l31-38c30 20 64 23 99 19l9-1 1 5c-10 16-25 28-38 42 7-6 12-14 19-1 2 15-3 30 3 45-2 9 4 20-6 28z" id="path624" fill="#9c775b"/><path class="st318" d="M777 260c-1 4-4 7-8 8v-3l8-5z" id="path626" fill="#9c775b"/><path class="st319" d="M1034 445c-7-3-16-5-24-5-14 1-27-5-41-7-1-9-1-19 3-27 6-7 13-4 21-4 3 1 8 3 9-2 0-5-2-8-7-10-8-3-18-2-24-11l-7-37c-1-4 0-9 2-13 4-5 10-5 15-3 10 4 21 6 31 11 8 4 18 4 27 4 12-1 17-11 20-21 5-14 13-26 21-38 4-5 8-9 14-10 11-4 18 1 19 13 1 18-8 32-16 46l-13 20c-1 4-4 8-7 12-5 7-6 13-1 21 1 16 4 32 4 49 0 5 0 10-3 15-15 7-29 3-43-3z" id="path628" fill="#986a3f"/><path class="st320" d="M1034 445c10-3 19 1 29 1 4 0 8 2 12 0 16-6 30 3 45 5 19 3 19 2 20-16v-53c0-4-1-8 1-12 1-4 3-7 7-8 6 0 5 5 6 8 1 5 3 9 3 14 0 7 4 14 3 21 1 18-1 35 2 52 8 9 20 4 30 8 16 2 30 10 46 11 4 0 8 4 9 8 1 2 0 4-1 6-7 7-15 4-23 2-10-3-20-7-30-7-4 0-9-1-10 4s4 5 8 6c15 4 31 6 47 9 6 2 15 1 15 10-1 6-5 8-10 6-8-3-17-2-26-2-14 0-27-4-41-6-5 0-10-3-10 5v97c0 6 1 11-2 16s-7 7-12 4c-9-6-13-15-10-25 5-21 3-42 0-63-1-9-2-17-1-26 0-6-2-10-8-12-13-8-28-8-43-10-16-2-32-6-48-7-3 0-4-2-6-4l-2-42z" id="path630" fill="#cd0230"/><path d="M924 325v-30c-2-3 0-6-1-9-1-8 2-11 10-11 7 0 15 0 15 9 0 15 4 29 7 43v89c0 7 1 15-10 15l-11-1c-2-2-6 1-7-3-2-18 2-36-3-54v-48z" id="path632" fill="#c0ab94"/><path d="M945 431c6-2 5-7 5-11l-1-95-1-30c11-9 14-8 25 2 2 11 5 21-3 31-3 17 8 34 4 51v2c-2 7-1 13 1 19l-1 5c-1 9 4 20-5 28-9 10-16 0-24-3z" id="path634" fill="#b37a05"/><path d="M1035 488l90 12c4 0 8 0 10 4-3 6-9 6-14 5-15 1-30 1-43-9-14-3-28-6-43-5v-7z" id="path636" fill="#e48f78"/><path class="st118" d="M904 425h15c2 3 6 6 7 10-5 6-10 9-14-1-1-3-5-6-8-9z" id="path638" fill="#cb8601"/><path class="st243" d="M927 436c-8 0-8-5-8-11l8 2 7 3c-3 0-5 3-7 5z" id="path640" fill="#8c6239"/><path d="M751 357c4 9 4 17 1 26l-11 10c-7-15 1-26 10-36z" id="path642" fill="#6e604e"/><path class="st167" d="M836 772h-14c4-3 10-3 14 0z" id="path644" fill="#a07049"/><path d="M1459 699c-20 6-39-4-22-22-1-18 4-38-4-55-21-24 8-52 1-81-4-16-28-72 4-62 24 23 18 58 18 88-2 28 11 54 2 81-2 17 6 36 1 51z" id="path646" fill="#eead49"/><path d="M1431 690v7c1 4 5 9-3 9-25 1-49 4-73 4-27 0-54 5-82 5-21-2-41 4-62 3-5-1-10 0-14-2h27l-11-5c3-7 9-6 15-5 12 1 23-1 34-2 6-2 3-6 3-9v-4c3-5 0-10-1-16 2-23-3-46-3-69 0-3 0-6-3-8l-5-4c-3-4-4-9-3-13 6-17 8-35 14-52 6-3 10-1 13 5 5 16 4 33 2 49 0 8-1 16 1 23 0 16-4 33 2 49l3 43c-1 8 5 8 10 7 17-3 36-1 53-1 9 0 14-8 23-8l13-1c8 2 16 2 21-6 8-3 16-6 24 0l2 1z" id="path648" fill="#aa7754"/><path d="M1544 698c-21 3-83 18-61-18-5-13-8-65 10-47 2 16 2 77 1 28-2-30 1-62-9-91 4-11-11-38 15-36 15 29 0 62 9 92 4 34-13 66 35 72z" id="path650" fill="#bb9054"/><path d="M1479 695c-33 21-22-46-23-66 4-28-18-74 5-92 9 11 2 29 4 44-4 16 15 0 10 23 1 30-18 62 3 85l1 6z" id="path652" fill="#9b6b1d"/><path d="M1589 705c-10-3-14-29-25-6-19 12-6-15-22-16-2-30 65-36 71-6-32-1 7 32-24 28z" id="path654" fill="#646418"/><path d="M1642 690c-12 3-28 10-17-5-40-17 24-14 17 5z" id="path656" fill="#646418"/><path d="M1619 695c-5 25-23-9 0 0z" id="path658" fill="#646418"/><path d="M1554 665c-20 14 12 28-17 32-47 9-30-49-33-77-16-39 46-32 44 0 17 7 43 22 17 40-4 1-8 2-11 5z" id="path660" fill="#253119"/><path d="M1551 700c17-4 22-39 33-9 25 19-41 19-33 9z" id="path662" fill="#32280a"/><path d="M1537 697c13-13 14 5 0 0z" id="path664" fill="#646418"/><path d="M1727 528c20 25 18 58 13 82-3 11-15 31 9 21 14 8-17 20-14 23-25-25 9 41-22 31-1-13-23-7-8-23 14-22-39-29-29-3-28-17-14 54-39 19-18-2-43-19-16-31-5-4-24-18-2-22 41 12-45-8-15-29 16-4 20-4 25 10 18-12 0-20 5-37 22-2 17-36 44-28 19-22 22 29 49-13z" id="path666" fill="#13230e"/><path d="M1624 670c13 7 26-9 21 15 15 1 0-47 27-27 33-5 12 56-17 32-10 2-35-9-31-20z" id="path668" fill="#585a37"/><path d="M1740 655c20 17 8-20 24-2 8 19-19 32-32 31 7-10-13-21 8-29z" id="path670" fill="#13230e"/><path d="M546 662v31c0 6-3 10-10 9-32 0-31 4-31-28v-44c0-7 3-10 11-10 35 0 29-5 30 28v14z" id="path672" fill="#030304"/><path d="M553 656v-12c1-8-4-19 2-21 10-5 22-4 33-2 3 0 4 2 5 5v65c0 8-2 11-10 12-29 0-30 0-30-29v-18z" id="path674" fill="#060506"/><path d="M601 661v-30c-1-9 3-12 11-11h2c26 0 25 0 24 26-1 16-2 32-1 48 0 7-3 9-10 9-31-1-26 3-26-26v-16z" id="path676" fill="#080706"/><path class="st316" d="M641 598c-1 16-1 16-18 17h-61c-7 0-13-1-10-10-5-2-2 7-7 4-3-1-5-5-4-8 0-5 5-3 7-3l93-1v1z" id="path678" fill="#0c0909"/><path class="st124" d="M769 705l2 2c4 2 6 6 11 7l5 5c-4 3-4 7-1 11 3 3 6 1 9-1 4-3 8-2 10 3 4 7 11 11 19 15l-61 2c-1-2-7-2-3-7 7-10 13-20 5-32-2-3 0-5 4-5z" id="path680" fill="#644f37"/><path d="M1659 433c6 7-34 13-12 24 21-13 23 21 2 3-25 16-43 52-81 40-13-10 13-29 14-44 12-7 49-9 28-29 0-40 18 4 21 14 9-8 17-11 28-9z" id="path682" fill="#405936"/><path d="M1621 306c12 19 37 18 43-3 9 27 76 1 57 37-9-8-47-14-29 0-16 24-33-11-54 5-21 3-59-46-17-39z" id="path684" fill="#364a0d"/><path d="M1660 455c-21-9 37-17 10-27-28 2 0-34 4-44 12 8-11 43 19 41-1-9 1-46 11-21 6 20 31-11 24 10-9 22-47 21-40 44-14 8-22 14-28-3z" id="path686" fill="#45601d"/><path d="M1614 330c16 17 39 0 54 8 2 20 38-6 9-3-11-21 57 1 18 6-4 10-10 33-26 16-6-26-55-2-27 20 9 35-13-24-23-1-45 29-11-34-5-46z" id="path688" fill="#516312"/><path d="M1707 522c-14-14 36-38 6-46 15-4 21-17 22-34 6 16 34 19 22 41-32 11 37 6 5 25-19 8-40 18-56 17l1-3z" id="path690" fill="#4b5633"/><path d="M1604 597c-1 17-38 28-28 4 15-24-39 31-31-7 10-28 37-72 68-37 2-2-47 17-13 24-21 11 5 3 4 16z" id="path692" fill="#4a761a"/><path d="M1604 550c-20 7 1-44-24-21-13-6-51-10-19-24 26 5 44-10 60-23 12 9-2 58-17 68z" id="path694" fill="#63775f"/><path d="M1599 385c1-11 10-22 14-7-1-22 36-16 12-1-7 24-17 70-47 39 9-12 45-4 31-27l-5-3-5-1z" id="path696" fill="#7b814b"/><path d="M1727 517c15-5 68-24 38 6-11-7-42 14-38-6z" id="path698" fill="#757f70"/><path d="M1722 353c-2 23-29 12-16-4 5-1 17-8 16 4z" id="path700" fill="#364a0d"/><path d="M1707 522c34 16-32 25 0 0z" id="path702" fill="#13230e"/><path d="M1760 472c-33-10 35-14 5 2l-5-2z" id="path704" fill="#818176"/><path d="M1622 538c23 2-10 29 2 3l-3-3z" id="path706" fill="#607558"/><path d="M1707 405c1-20 24 1 0 0z" id="path708" fill="#45601d"/><path d="M1638 544c12-15 20 2 0 0z" id="path710" fill="#6e8267"/><path d="M1659 433c-6 5-10-6 0 0z" id="path712" fill="#45601d"/><path d="M1677 415c9-6 6 7 0 0z" id="path714" fill="#45601d"/><path d="M1712 294c6-17 34-11 13-1l-13 1z" id="path716" fill="#a6a37b"/><path d="M1752 315c-6 20-25 1-7 0 0-4 8-4 7 0z" id="path718" fill="#aea193"/><path d="M1737 248c13-27 20 10 0 0z" id="path720" fill="#282e07"/><path d="M1725 240c8 12-18 7 0 0z" id="path722" fill="#282e07"/><path d="M1711 231c-1 13-21 27-17 6 7 2 11-4 16-6z" id="path724" fill="#c2ad8b"/><path d="M1749 537c-5-12 12-2 0 0z" id="path726" fill="#324e14"/><path d="M1826 522c1-14 16-4 0 0z" id="path728" fill="#273b0e"/><path d="M1797 447c0 12-11 2 0 0z" id="path730" fill="#444c2b"/><path d="M1023 725l97-3c9 0 18-4 28-2l27-1 21 1c-18 4-35 3-53 3-38 2-76 6-113 4l-8-2z" id="path732" fill="#e1ab89"/><path d="M1078 500l43 6c7 13 9 27 10 41v70c-3 21 0 43-1 64l-1 21-1 3c-1 3-1 7-5 7-11 1-23 2-34 1-5 0-4-5-4-8-1-14 2-27-2-41-10-9-6-20-4-31a10845 10845 0 0 1-1-133z" id="path734" fill="#443b07"/><path d="M1080 604c4 20 1 40 3 61l-1 26c1 7-2 11-10 11h-64c-8 0-10-6-15-9l-13-8v-62l30 2c5 1 9 4 9 10-1 14 9 19 19 22 11 2 22-1 25-15l3-4c15-7 14-20 14-34z" id="path736" fill="#a4856c"/><path d="M1268 707c-18 5-37 1-55 3-13 0-26-1-38 2-13 2-16-1-13-15 3-5 7-5 12-4 11 2 21 4 32 0 7-3 14 2 21 1 7 3 14 3 21 1 11-3 17 1 20 12z" id="path738" fill="#3c2d0b"/><path d="M1165 695c1 7-5 18 10 17-13 4-26 7-37-4-3-3-7-3-10-3h-1c-2-11 6-12 13-14 8-1 16-3 24 3l1 1z" id="path740" fill="#a77a5e"/><path class="st292" d="M1148 720c-9 3-19 2-28 2 9-3 18-7 28-2z" id="path742" fill="#ba8a5d"/><path class="st292" d="M895 732h-12v-1h12v1z" id="path744" fill="#ba8a5d"/><path d="M957 207c-3-5-6-10-13-7-3 1-6 0-8-3-1-4 3-4 4-6 5-10 12-12 21-5 3 2 7 0 11-1 13-3 26-9 38-8l35 4 19 2c11 0 22-5 29 8 1 2 5 3 7 4 23 1 41 12 59 23 11 6 20 6 31 2 20 7 38 17 56 26l76 41c15 8 31 14 43 26 1 2 4 2 6 2 28 15 55 33 81 50l11 9c16 15 15 24-4 36-13 0-26 4-38-3-5-4-6-9-5-14 3-11-3-16-11-20-44-20-88-41-132-59-43-17-85-34-129-48-55-17-110-35-167-48-7-2-16-2-20-11z" id="path746" fill="#cb8b56"/><path class="st308" d="M1461 405c12-11 13-15 0-25-25-22-51-42-81-57-4-2-7-4-9-8 14 4 27 11 40 20 9 6 17 13 31 17-7-13-22-15-26-27 26 14 48 34 72 51 7 5 12 10 11 19 2 3 1 5-1 8h-17c-4 3-8 6-13 6-3-1-5-1-7-4z" id="path748" fill="#b75558"/><path d="M1569 472c-11 8-33-14-6-17-7-16 22-21-3-31 12-5 18-23 23-7 15 2 15 6 26 6-6 16-32 25-35 47l-5 2z" id="path750" fill="#526253"/><path d="M1498 402c3-32 42 0 6 5l-3-1-3-4z" id="path752" fill="#b2bac8"/><path d="M1481 405c-27 2-2-7 0 0z" id="path754" fill="#cb8b56"/><path d="M1612 335c16 14-19 31-14 10-17 9 7-20 14-10z" id="path756" fill="#364a0d"/><path d="M1612 335c-28 10 12-25 0 0z" id="path758" fill="#909851"/><path d="M849 723c3 12-4 16-14 19s-23-3-25-11c-2-6 3-7 7-8l17-1c6-4 11-5 15 1z" id="path760" fill="#6d5743"/><path d="M849 723l-15-1-5-17c-3-2-3-5 0-7 17 0 25 11 20 25z" id="path762" fill="#957a66"/><path d="M826 715c-3 3-7 2-10 2s-10 3-8-4c1-5 3-12 11-8h2c3 2 5 5 5 8v2z" id="path764" fill="#897365"/><path d="M829 698v7c1 4 1 7-3 10l-8-10c1-7 5-8 11-7z" id="path766" fill="#987c66"/><path class="st252" d="M782 715c-6 1-8-5-11-8 5 1 8 4 11 8z" id="path768" fill="#372316"/><path class="st252" d="M727 703l-11 11c1-8 5-10 10-12l1 1z" id="path770" fill="#372316"/><path d="M957 207a2231 2231 0 0 1 413 144c13 6 25 13 38 18 11 4 15 11 13 21-3 2-6 2-9 1-4-3-9-4-13-6-28-14-57-26-86-38-41-18-83-35-127-49-12-4-25-8-37-14-7-1-14-3-20-6-15-8-31-9-46-13-31-10-63-18-95-26l-7-1c-3-1-5-1-7 1-2 3-1 6 2 8 6 6 7 11 1 18-4 5-2 11-3 17 0 6 1 12-5 15-6-7-13-3-20-2-6-8-5-17-7-26-2-12-4-26-3-39-1-7 0-14 4-20l1-5 13 2z" id="path772" fill="#965a05"/><path d="M944 230l5 66v29l-5-35c0-4 3-11-4-10-5 2-19-5-16 11v5c-5-16-1-32-2-48 1-7 5-13 10-17 3-4 8-5 12-1z" id="path774" fill="#bb9572"/><path class="st317" d="M944 230c-5 0-9 2-12 7-2 5-6 8-10 11-7-1-8 6-12 8-4 3-6 7-14 9 13-24 31-39 48-55v20z" id="path776" fill="#b9835a"/><path d="M969 298v-28c-1-8 8-8 9-13 1-7-10-2-11-10-2-14 1-18 14-15 48 11 94 24 140 38 3 1 7 1 8 5-1 5-8 5-10 10-5 8-1 15 0 22 0 12 2 24-1 36-1 2-3 5-5 5-11-1-22 1-33 2l27-49c4-7 3-14 2-21s-14-8-20 0c-10 12-19 24-24 39-1 3-1 7-3 10-10 17-24 22-45 15l-47-17-1-29z" id="path778" fill="#ac7d57"/><path d="M1120 455c-16 0-30-5-45-9 1-22-4-43-3-66 3-8 10-7 16-5 11 3 23 7 33 15 5 6 4 14 4 21v31c0 5 0 10-5 13z" id="path780" fill="#715721"/><path d="M1117 390c-10-1-19-7-29-10-6-1-11-4-15 1-8-2-10-6-5-12l12-18c3-1 5-2 7-5 4-7 9-9 15-3 4 4 9 2 13 2 10 9 11 34 2 45z" id="path782" fill="#bc8965"/><path d="M1013 403c-3-11 1-15 12-11 9 4 19 6 29 9 6 1 8 4 9 10 0 16 0 16-15 12l-24-6c-9-2-15-5-12-14z" id="path784" fill="#2a1a0f"/><path d="M972 381l2-2 26 6c5 1 7 4 8 9 3 16 2 17-14 14-6-2-13-2-19-3l-3-4c-2-6-2-13 0-20z" id="path786" fill="#291a0f"/><path class="st371" d="M1401 382c5 1 9 2 12 5-8 5-13 13-14 23l-3 3c-13 5-27 7-41 11-14 7-29 12-45 15-5-1-10 3-15-1-4-9-10-16-20-19-5-5-12-2-18-2-16 1-32 2-44 13-22-2-42-8-58-24l-3-21v-14c1-10-1-20-1-30 1-12 5-16 17-13 28 7 56 17 83 27l81 29c11 4 20 6 31-1 11-8 25-8 38-1z" id="path788" fill="#bb8355"/><path d="M1228 697c-4 2-9 3-13 1-2-2-5-3-7-1-15 9-29 2-43-2h-1c-7-9-3-20-6-30-2-5-2-12-2-18-1-6 1-11 4-16V512c7-5 14-1 20 1 17 3 36 3 52 11 2 3 4 7 4 11l-2 11c-3 19-6 38-5 58 3 28 3 55 3 83-1 4 0 8-4 10z" id="path790" fill="#5a4a04"/><path d="M1153 370l-1 14c-4-5 0-12-3-18-5 4-4 9-4 13v64c0 18-1 19-18 14l-7-2c-1-22 2-44-3-65 1-15 2-30-2-45v-40c-2-9-1-17-1-25 4-7 10-5 16-6 7 0 14 1 21 6 6 5 5 12 4 19v11l-2 60z" id="path792" fill="#94020d"/><path d="M1155 406c19 7 38 16 58 21 13 1 23-5 33-10 5-3 10-4 16-2 6 9 4 18 2 27-7 6-8 14-8 23 1 7 3 14-3 21-3 1-5 1-8-2-11-7-24-5-37-9-6-2-11-7-18-6-9-10-21-6-33-6-3-18-1-38-2-57z" id="path794" fill="#654b11"/><path d="M1246 485l7-1h5c4 2 9 1 13 2l7 1c8 0 15 4 23 5 5 0 9 4 14 4l5 1c5-1 5-11 13-7 4 8 10 13 19 14 6 1 10 1 11-7 0-4 2-9 8-8s5 6 4 10v4-5c8-4 9 1 10 6 0 4 1 7 6 8l25 8c4-1 4-3 4-6 0-4 1-8 7-8 3 2 2 6 2 9 0 14 5 28 3 42 0 5 1 10-2 15-4 5-7 2-9-2-2-3-3-8-8-9-4-3-9-5-14-6-37-7-75-14-113-23-20-5-41-4-60-12-4-1-9 0-10-6 10 0 20-2 30 3 3 1 4-1 6-3 6-7 14-5 22-4 9 1 18 2 28-2 7 11 19 12 33 12-9-10-21-2-30-9-4-8-11-3-16-4-13-3-25-6-38-7-2-1-4-1-5-3-2-3-2-5 1-8-2-1-2-2-1-4z" id="path796" fill="#ca173c"/><path d="M1160 645c3 17 6 33 4 50h-24c-12-7-16-14-12-30s0-32-3-48l-1-67c0-15-7-29-4-44l15-1c9-1 14 2 11 13-4 12 1 24 2 37 2 18 4 36-2 54-3 9 1 16 6 23 0 7 5 9 8 13z" id="path798" fill="#bc0212"/><path d="M1301 510c-9 7-17 10-28 6-7-3-15-1-23-2 0-2-2-4-5-4-14 2-27-5-42-6-8 0-16-5-25-6-5 0-3-7-3-11 0-6 3-7 8-8 14-1 27 4 40 7l22 4v7c2 2 3 2 5 0 14-5 26 3 39 5 5 1 13 0 16 8h-4z" id="path800" fill="#7f3c34"/><path d="M1215 515l136 27c22 5 44 8 65 15-2 3-5 5-9 5-5 0-9 3-14 0-15-4-30-8-46-10-6 0-12 0-18-4-3-2-6 2-8 3-5 0-6-5-9-6-2-1-5-2-7-1-11-1-21-2-29-9-2-4-6-5-10-5l-4 2-4 1c-9 0-20 1-28-7-23-7-46-11-70-14-5-8 1-6 5-5l50 8z" id="path802" fill="#ee9b7f"/><path d="M1157 464c9-7 19-4 28-4 6 0 4 6 5 10l-33-6z" id="path804" fill="#9f9484"/><path d="M1160 645c-4-3-11 2-13-8-1-8 4-3 6-5 2 2 5 1 7-1v14z" id="path806" fill="#e5585b"/><path class="st319" d="M972 381v20c-5-6-1-14-2-21v-1c2-1 2 1 2 2z" id="path808" fill="#986a3f"/><path d="M1426 575c3-14-6-58 5-57 12 21 7 47 6 71-15 6 0 53-16 23-1-12-1-26 5-37z" id="path810" fill="#a66b26"/><path d="M1441 480c12 19 49-6 36 28 8 16-8 33-17 13-9 7-20-34-19-41z" id="path812" fill="#bd9f6f"/><path d="M1453 522c3-21 15 0 15-4 12 20 15 50 2 70-8-15-4-49-17-50v-16z" id="path814" fill="#b28741"/><path d="M1441 480c5 25-15-18-16 10 7 16 7 41-4 13-8-20-4-81 14-37 3 5 5 9 6 14z" id="path816" fill="#d9a06a"/><path d="M1441 647c-1 13 6 58-14 36 6-14-5-58 11-55 1 7-1 14 3 19z" id="path818" fill="#b1711f"/><path d="M1441 647c-9-6-5-31-7-7 3 14-5 54-8 20-11-26 20-61 15-17v4z" id="path820" fill="#76460e"/><path class="st387" d="M1386 698l-13 2c-10 0-20 5-31 3-6-4-8-11-7-17 2-8-1-14-4-21v-14c2-17 3-33 0-50-2-4-5-4-8-3l-5-1c-3-4-7-6-12-7-6-3-9-6-7-12 0-2 1-3 2-3 23-8 46-17 71-12 8 1 12 5 13 13 1 12 5 24-5 35-8 6-6 15-5 22 1 17 1 34 4 50l5 5 2 2c1 2 2 4 1 7l-1 1z" id="path822" fill="#f99764"/><path d="M1301 578c-1 5 4 7 7 9l2 9v5l-1 10c0 9 1 18 4 27l1 36c-1-7 2-15 3-22 1-4 2-9 5-12 7-2 7 3 8 7 1 9 2 18 0 26 1-3 2-7 6-8 7 10 2 23 5 35-2 3-5 3-8 3h-9l-25 2c-7 1-14 1-18-5l-3-45c-2-13 0-26 4-38l10-30c1-4 1-10 9-9z" id="path824" fill="#f9914d"/><path d="M1431 623v53l-1 13c-8 0-15 3-24 1-6-3-5-8-5-14l-1-44-2-21c-2-7-4-15 3-21 3-3-1-5 0-8 0-8-3-17 5-23l10-2c13 1 5 13 10 18l1 36c0 5-1 10 4 12z" id="path826" fill="#c70519"/><path class="st390" d="M1230 525c11 0 21 1 31 4l-1 12c1-4-1-8 3-11h2c0 15 0 30-8 44-3 5-1 12-1 17-11 23 0 47-2 71-1 6 1 13-8 15-4-2-5-6-5-11 0-32-5-64-4-96 0-12-2-24-6-36l-1-9z" id="path828" fill="#826027"/><path class="st391" d="M1246 677c4-15 2-32 1-47l-2-20c-1-9 2-15 11-18l5 1 6 93 1 6 4 9c1 1 5 2 3 5-2 2-5 1-8 1-7-8-14-11-25-6-5 2-10-1-15-4l1-10c3-2 7 5 11 0 2-4 2-8 7-10z" id="path830" fill="#6e4e30"/><path d="M1406 559v29c0 6-8 8-5 15 10 28 2 58 6 87-2 16-13 9-21 8 5-5 5-11 5-18 0-36-1-71-5-107 0-5 1-11 7-13l13-1z" id="path832" fill="#802a08"/><path d="M1275 535c8 0 17-2 23 4 3 3 6 0 8-1l8 11c1 5-1 8-6 10-3 2-7 3-10 6-7 10-8 21-13 31-2 5-3 10-10 9v-70z" id="path834" fill="#fa955b"/><path d="M1276 605c7-15 11-30 17-45 11 2 12 8 8 17v1c-7 26-22 49-23 76-5-16-2-33-2-49z" id="path836" fill="#d76a26"/><path d="M1280 700c11-2 22 4 33-4 2-1 7 5 13 4 2-2 3-2 5 0h43c-16 7-32 9-48 8-12-1-24 1-35 2-8 0-12-3-11-10z" id="path838" fill="#d7a281"/><path d="M1268 692c-6-1-5-5-5-9l-2-20c0-20-5-40-3-60 1-3 1-7 3-10 6 2 5 7 5 12l3 72c1 5 1 10-1 15z" id="path840" fill="#241107"/><path class="st391" d="M1268 692l1-15c2 5 3 10-1 15z" id="path842" fill="#6e4e30"/><path d="M1572 555c-5 19-42 48-11 56-7 17-25 19-21-2-3-21-18 14-19-12-25-14-13 44-19 9 4-19-14-80 18-62 9 11 20 15 18 30-2-17 19-27 30-34 6 2 7 10 4 15z" id="path844" fill="#2d4d22"/><path d="M1474 560c3-16-7-56 6-59 16 21 6 44 5 67-2 11 0 40 0 13 24 21-12 63 0 92 7 15-6 38-10 11-2-41-1-83-1-124z" id="path846" fill="#e5b05a"/><path d="M1487 542c-3-19-15-54 16-30 22 8 14 42-4 29-2-13-7 5-12 1z" id="path848" fill="#46673b"/><path d="M1489 627v-42c14 14 3 52 8 76 3 12-3 42-6 13-1-16 3-32-2-47z" id="path850" fill="#48331b"/><path d="M1494 585c-16-8-5 47-11 10-10-13 8-55 11-28-11 4-2 11 0 18z" id="path852" fill="#8f6a2e"/><path d="M1492 680c10 12 1-46 7-11 4 16-5 43-7 11z" id="path854" fill="#543413"/><path d="M1474 560c3 30 2 61 4 91 2 15 1 65-6 26-12-27 5-60 0-90 0-9-3-18 2-27z" id="path856" fill="#ca8a10"/><path d="M1471 633c-5 15 10 54-7 57 3-15-9-52 7-57z" id="path858" fill="#351c12"/><path d="M1461 550c14 6 13 54 1 58-2-19-1-39-1-58z" id="path860" fill="#352310"/><path d="M1546 625c11-15 15-38 39-39 18 13-30 28 5 25 13-34 16 24 44 16 31 6-41 0-18 10 36 1-6 26-3 27 31 14-12 17-15-4-11 5-39 7-42 1 18-8 23-35-2-28l-4-4-4-4z" id="path862" fill="#29430e"/><path d="M1606 673c7-11 12 8 0 0z" id="path864" fill="#13230e"/><path d="M1676 635c-29-10 33-9 0 0z" id="path866" fill="#4e6038"/><path d="M1677 658c-20 8-19-17 0 0z" id="path868" fill="#4a4a12"/><path d="M1569 472c2-8 11-42 35-40 3 7 26-13 18 9-13 19-45 9-46 37-3-1-4-5-7-6z" id="path870" fill="#718271"/><path d="M1612 433c2 16-26 11-6-4-2-28 22-15 6 4z" id="path872" fill="#29430e"/><path d="M1660 455c16-1 0 19 0 0z" id="path874" fill="#29430e"/><path d="M1752 485c24 22-35 11-4-3l4 3z" id="path876" fill="#78815f"/><path d="M1572 555c-7-29-15 9-20 6-20-11-4 19-10 17-19 3-16-12-10-18-20 7-29-30-3-19-9-36 39-21 50-17 9-27 3 20 0 13 26-3 14 18-5 15l-2 3z" id="path878" fill="#46673b"/><path d="M1549 518c-24-1-5 47-32 22-3-13-14 2-6-15-17-6-50-38-12-32 10-15 46 8 17 13-8 27 31-4 33 12z" id="path880" fill="#748283"/><path d="M1581 532c2-9 20-23 22-10-19 1 11 20-15 15l-4-1-3-4z" id="path882" fill="#96a198"/><path d="M1567 520c-11 21-18-21 0 0z" id="path884" fill="#748283"/><path d="M1597 538c23-7-11 18 0 0z" id="path886" fill="#b6c6b6"/><path d="M1125 617c8 14 13 30 9 45-4 11-3 19 4 28l2 5c-5 3-13 0-13 10-3-30-2-59-2-88z" id="path888" fill="#85130c"/><path d="M1397 410l-1-3c-2-19-2-19 17-20l8 3v15c-3 3-4 7-6 11-2 6-7 9-14 7-6-2-7-7-4-13z" id="path890" fill="#9f0910"/><path d="M1397 410c2 4 1 10 8 10 6 0 6-5 7-9 2-3 5-5 9-6l1 40 2 62-1 13c0 5-2 9-7 4a77 77 0 0 1-19-46c0-14 2-28-3-41l-2-4c-1-8-4-16 3-23h2z" id="path892" fill="#cb0629"/><path d="M1497 490c-10 7-29-2-37-2 6-17 24-10 33-18 3 6 6 13 4 20z" id="path894" fill="#4e5956"/><path d="M1466 480c4 18-15 23-20 3 13 5 12-7 20-3z" id="path896" fill="#5b5f51"/><path d="M1483 475c3 11-18-3 0 0z" id="path898" fill="#748283"/><path class="st252" d="M819 705c4 2 6 5 7 10-3-3-6-6-7-10z" id="path900" fill="#372316"/><path d="M1153 370l-3-60c5-3 5-6 0-10v-19c50 15 99 33 146 53 31 14 63 26 93 41l12 7c-11-1-22-1-32 4-33 17-60-6-88-15-39-13-77-28-117-39-8-2-8 1-9 7-1 10 2 21-2 31z" id="path902" fill="#cb8c5c"/><path class="st319" d="M1114 280v25c-3-8-3-16 0-25z" id="path904" fill="#986a3f"/><path d="M1376 498l-1 18c-4-9 1-18-5-24-4 1-3 4-3 7 1 15 1 15-13 11l-9-2c-11 0-16-6-15-17-8-5-4-12-3-16-6 6 0 18-9 25l-3-1c-7-5-7-13-6-21 2-12 1-23-10-30-2-9 3-11 10-13l45-15c10 3 14 11 16 21 3 9 15 12 15 23-2 5-2 11-1 16 0 7 0 14-8 18z" id="path906" fill="#f0a179"/><path d="M1308 435c-4 4-9 7-7 13 17 16 5 32 0 47-9 4-16-4-25-3-6-7-1-14 0-20 2-10 8-18 11-28 1-3 3-7 8-7 5 2 8-4 13-2z" id="path908" fill="#f5915b"/><path d="M1271 490c-5 0-10 1-15-2 3-11-1-23 1-34 0-4 0-8 3-11 0-9 2-19-2-28v-2c6-2 13-4 18 2v39c0 12 1 24-5 36z" id="path910" fill="#9e6b36"/><path d="M1271 452l-1-26c0-5 0-10 5-11 11 4 24 6 20 22l-4 8c-6 5-11 13-20 7z" id="path912" fill="#ab4a05"/><path d="M1258 413v2c-9-1-16 7-21 12-9 9-16 5-24 0 4-11 14-13 24-14h21z" id="path914" fill="#956b3c"/><path d="M1246 677c0 5-1 9-3 13-4 5-7 1-10-2l-1-8-3-105c0-10 6-20 2-30v-10c9 8 9 19 9 29-1 38 6 76 6 113z" id="path916" fill="#a0764a"/><path class="st390" d="M1231 545c3 4 2 8 2 13 0 40 4 81 3 121 0 5-3 13 7 11-1 6-2 12-9 3l-6-6c0-47-8-95 3-142z" id="path918" fill="#826027"/><path d="M1150 300h2c5 1 13-2 13 4 0 8-9 6-15 6v-10z" id="path920" fill="#86512a"/><path d="M1260 443l1 37c0 3 0 7-5 8l-3-3c2-11-3-22 0-34 1-4 2-8 7-8z" id="path922" fill="#1f0f03"/><path d="M1398 436c5 9 4 20 2 30-2 17 7 31 13 46l3 12c-10 0-20-1-26-9-8-8-7-19 2-23 6-3-1-5 1-7 0-8-3-15-1-23 1-9 1-18 6-26z" id="path924" fill="#9c1918"/><path d="M1396 487c5 4 1 9 2 13-3-1-1-6-6-6-3 7-4 14-2 21-6 7-8 3-9-3-1-5 2-11-5-14 5-11 0-24 5-35 1-2 2-2 4-2 9 7 5 19 11 26z" id="path926" fill="#cb7856"/><path d="M1301 510h27c7 0 13 4 13 12 0 6-3 10-9 6s-12-3-18-3c-9-1-14-5-13-15z" id="path928" fill="#7b3928"/><path d="M1301 495c1-10-5-20 6-29 3-3-8-11-6-18 18 5 11 21 13 33l1 18c-5 1-10 2-14-4z" id="path930" fill="#713829"/><path d="M1271 452c7 0 12-7 20-7-2 12-8 23-12 34-1 4-4 8-3 13l-5-2v-38z" id="path932" fill="#d76b32"/><path d="M1318 500c3-8-7-19 7-25l-7-15c7-1 10 2 11 8l1 23c-2 2-2 5-3 8-1 9-5 4-9 1z" id="path934" fill="#693521"/><path class="st320" d="M1250 497c0 2 1 6-2 6s-2-4-2-6h4z" id="path936" fill="#cd0230"/><path d="M1301 577c0-7-5-12-8-17 4-3 9-5 15-5 3 0 4-2 3-5 0-3-2-7 2-10 7 0 4 8 8 10l7-7c16 8 33 3 49 10 5 3 14-1 16 7-2 5-1 10-1 15l3 111c0 7-1 12-9 11l-3-7c-2-18-1-37-1-55 0-3 1-6-4-8-8-4-6-13-2-20 10-9 5-20 2-30 0 0 3-12-4-3-26-20-49 5-73 3z" id="path938" fill="#c37344"/><path d="M1263 530c-1 6 2 11-3 19-3-8-4-14 1-19h2z" id="path940" fill="#220b00"/><path d="M1313 540c0 4 3 8-2 10-6-2-6-7-5-12l7 2z" id="path942" fill="#782403"/><path d="M1328 542c2 6-1 9-7 8 0-5 0-10 7-8z" id="path944" fill="#762609"/><path d="M1484 492c-2 38-18-20 0 0z" id="path946" fill="#4e5956"/><path d="M1484 492c-24 0 7-15 0 0z" id="path948" fill="#748283"/><path d="M1466 515c7 37-26 2 0 0z" id="path950" fill="#2d3753"/><path d="M1306 601v-7c4-4 8 0 13 1h4c3-1 6 3 10 2 6 17 4 34 2 52-6 0-6 0-6-3-1-5 0-10-4-13l-5 3c-3-1-5-3-7-6-2 4-1 9-6 10-3-10-1-20-1-30 5-3 0-6 0-9z" id="path952" fill="#b3806b"/><path d="M1376 607v21c7-7 3-13 6-17 5 1 5 4 5 7-2 22-1 44 0 67 0 3-1 4-4 5-7-5-5-12-5-19v-16c-2 10 4 23-3 35-4-27-4-54-4-81 0-4 2-4 5-2z" id="path954" fill="#7a3416"/><path d="M1323 625c7-3 9-1 9 7-1 5-4 12 3 17l1 15-2 19c-1 3 0 6-5 6-4 0-4-4-4-6 0-15 1-29-2-44-3-4-1-9 0-14z" id="path956" fill="#65220a"/><path d="M1375 690v-58h5c3 19-1 39 3 58h-8z" id="path958" fill="#cc6424"/><path d="M1319 595c-2 1 1 7-5 3l-8-4c0-3-1-5 2-7 5 1 10 1 10 8z" id="path960" fill="#884529"/><path d="M1333 597l-1 5c-4-1-7-4-10-7 5-4 9-4 11 2z" id="path962" fill="#7a432b"/><path class="st444" d="M1308 640v-23c10 3 9 11 12 18 4 5 2 11 1 17l-2 29c0 3 4 9-4 9-6 0-5-6-6-9l-2-41z" id="path964" fill="#7a3415"/><path class="st444" d="M1306 601l3 3c3 3 12 2 8 8-3 5-8 0-11-2v-9z" id="path966" fill="#7a3415"/><path class="st387" d="M1321 652l-1-18c1-3 0-6 3-9v14c-1 5 1 9-2 13z" id="path968" fill="#f99764"/><path class="st387" d="M1331 699h-6c1-2 0-5 3-5l2 5z" id="path970" fill="#f99764"/><path d="M1597 538c-5 13-35-9-8-4l5 2 3 2z" id="path972" fill="#63775f"/><path d="M1554 543c-12 19-23 7 0 0z" id="path974" fill="#2d4d22"/><path d="M1579 533c13 22-31 1 0 0z" id="path976" fill="#a6b6ad"/><path d="M1577 532c-13 15-16-6 0 0z" id="path978" fill="#63775f"/><path d="M1587 520c10 9-11 13 0 0z" id="path980" fill="#63775f"/><path d="M1386 463h-5c-4-7-15-10-14-21 10-1 22 6 30-7l2 1c-3 9 2 19-3 27-4 3-7 3-10 0z" id="path982" fill="#b99a8e"/><path d="M1226 330c4-5 9-4 13-1 4 2 1 6-1 8-5 8-5-7-10-2l-2-5z" id="path984" fill="#7f4f29"/><path d="M1362 375c-6 6-8 10-13 9-2-1-3-4-2-5 3-6 7-3 15-4z" id="path986" fill="#93592e"/><path class="st371" d="M1226 330c4 0 2 3 2 5-4 0-5-2-2-5z" id="path988" fill="#bb8355"/><path d="M1386 463h10v25c-9-6-11-15-10-25z" id="path990" fill="#4f4441"/><path d="M1324 606c3 4 10 3 8 9l-2 1c-5-1-8-3-6-10z" id="path992" fill="#63301a"/></g></g></svg>